<?xml version="1.0" encoding="UTF-8"?>
<svg version="1.1" xmlns="http://www.w3.org/2000/svg" width="60" height="55">
<path d="M0 0 C0.66 1.98 1.32 3.96 2 6 C2.78375 5.34 3.5675 4.68 4.375 4 C7 2 7 2 9 2 C10.38938077 3.96147874 11.7260411 5.96166576 13 8 C13.78375 7.34 14.5675 6.68 15.375 6 C18 4 18 4 20 4 C23.21216123 10.74553859 27.41020328 19.65781771 26.83203125 27.1875 C25.73963119 29.5671884 24.32481106 30.9990563 22.4375 32.8125 C21.71433594 33.50859375 20.99117187 34.2046875 20.24609375 34.921875 C16.89344456 38.02380434 13.46666544 41.02666772 10 44 C8.49872674 45.31104343 6.99869166 46.62350626 5.5 47.9375 C4.33333333 48.95833333 3.16666667 49.97916667 2 51 C-0.29113732 48.8092961 -1.6975667 46.90542812 -3 44 C-3.763125 44.680625 -4.52625 45.36125 -5.3125 46.0625 C-6.199375 46.701875 -7.08625 47.34125 -8 48 C-9.485 47.505 -9.485 47.505 -11 47 C-11.6875 44.9375 -11.6875 44.9375 -12 43 C-12.86625 43.433125 -12.86625 43.433125 -13.75 43.875 C-15.83333333 44.91666667 -17.91666667 45.95833333 -20 47 C-21.99985813 42.13740078 -23.96739695 37.2594367 -25.75 32.3125 C-25.99234375 31.64863281 -26.2346875 30.98476563 -26.484375 30.30078125 C-27.22732204 26.98566152 -27.40046207 24.39280363 -27 21 C-25.18101181 18.792961 -23.67563244 17.26332546 -21.5 15.5 C-20.68112305 14.79617187 -20.68112305 14.79617187 -19.84570312 14.078125 C-18.75044446 13.13896327 -17.6482987 12.2077674 -16.5390625 11.28515625 C-14.48452383 9.56956432 -12.49538767 7.78375565 -10.5 6 C-3.66 0 -3.66 0 0 0 Z M3 8 C4 10 4 10 4 10 Z M12 13 C13 16 13 16 13 16 Z M13 17 C14 19 14 19 14 19 Z " fill="#BC1F23" transform="translate(29,3)"/>
<path d="M0 0 C3.21216123 6.74553859 7.41020328 15.65781771 6.83203125 23.1875 C5.73963119 25.5671884 4.32481106 26.9990563 2.4375 28.8125 C1.71433594 29.50859375 0.99117187 30.2046875 0.24609375 30.921875 C-3.10655544 34.02380434 -6.53333456 37.02666772 -10 40 C-11.50127326 41.31104343 -13.00130834 42.62350626 -14.5 43.9375 C-15.66666667 44.95833333 -16.83333333 45.97916667 -18 47 C-20.29113732 44.8092961 -21.6975667 42.90542812 -23 40 C-24.1446875 41.0209375 -24.1446875 41.0209375 -25.3125 42.0625 C-26.199375 42.701875 -27.08625 43.34125 -28 44 C-28.99 43.67 -29.98 43.34 -31 43 C-32.1875 39.9375 -32.1875 39.9375 -33 37 C-32.53851563 36.59910156 -32.07703125 36.19820312 -31.6015625 35.78515625 C-30.20858627 34.57111965 -28.82389948 33.34753932 -27.4453125 32.1171875 C-25.75478187 30.65350124 -24.01590342 29.24450376 -22.2421875 27.8828125 C-17.02138316 23.92780033 -17.02138316 23.92780033 -14.3671875 18.203125 C-14.37419907 15.72102991 -14.54216116 13.43672007 -15 11 C-14.36578125 10.73445313 -13.7315625 10.46890625 -13.078125 10.1953125 C-10.66213775 9.09129506 -10.66213775 9.09129506 -9.75 5.875 C-9.5025 4.92625 -9.255 3.9775 -9 3 C-8.01 3 -7.02 3 -6 3 C-1.875 0 -1.875 0 0 0 Z M-8 9 C-7 12 -7 12 -7 12 Z M-7 13 C-6 15 -6 15 -6 15 Z " fill="#F1911F" transform="translate(49,7)"/>
<path d="M0 0 C0.69969682 2.24623699 1.38435043 4.49716414 2.0625 6.75 C2.44535156 8.00296875 2.82820313 9.2559375 3.22265625 10.546875 C4.28732435 15.27635542 4.28732435 15.27635542 3 18 C1.43359375 19.89453125 1.43359375 19.89453125 -0.5625 21.8125 C-1.64724609 22.85664062 -1.64724609 22.85664062 -2.75390625 23.921875 C-6.10655544 27.02380434 -9.53333456 30.02666772 -13 33 C-14.50127326 34.31104343 -16.00130834 35.62350626 -17.5 36.9375 C-18.66666667 37.95833333 -19.83333333 38.97916667 -21 40 C-23.25482082 38.23535762 -24.03667133 36.90438785 -25.07421875 34.19921875 C-24.99161467 30.63854824 -24.76040651 30.29683962 -22.39453125 27.89453125 C-21.21761591 26.84764714 -20.02266813 25.82076046 -18.8125 24.8125 C-18.22146484 24.29236328 -17.63042969 23.77222656 -17.02148438 23.23632812 C-14.6049757 21.12693426 -12.24845958 19.16285251 -9.5625 17.40234375 C-7.77437404 16.12406255 -7.77437404 16.12406255 -7.85546875 13.984375 C-8.01982422 12.87835937 -8.01982422 12.87835937 -8.1875 11.75 C-8.35871526 8.67316103 -8.28807273 7.40972003 -6.4921875 4.85546875 C-1.60705193 0 -1.60705193 0 0 0 Z " fill="#4D9FD9" transform="translate(52,14)"/>
<path d="M0 0 C0.33 1.32 0.66 2.64 1 4 C0.53851562 4.40089844 0.07703125 4.80179687 -0.3984375 5.21484375 C-4.31756234 8.6305237 -8.20506859 12.07722507 -12.0625 15.5625 C-13.70742385 17.04267801 -15.35320648 18.5219024 -17 20 C-18.04994141 20.94359375 -18.04994141 20.94359375 -19.12109375 21.90625 C-23.76518278 26 -23.76518278 26 -26 26 C-26.33 26.66 -26.66 27.32 -27 28 C-27.34375 24.84375 -27.34375 24.84375 -27 21 C-25.18101181 18.792961 -23.67563244 17.26332546 -21.5 15.5 C-20.68112305 14.79617187 -20.68112305 14.79617187 -19.84570312 14.078125 C-18.75044446 13.13896327 -17.6482987 12.2077674 -16.5390625 11.28515625 C-14.48452383 9.56956432 -12.49538767 7.78375565 -10.5 6 C-3.66 0 -3.66 0 0 0 Z " fill="#C3272D" transform="translate(29,3)"/>
<path d="M0 0 C0.36328125 2.140625 0.36328125 2.140625 0 5 C-1.88865887 7.14988831 -3.66050471 8.9037576 -5.8125 10.75 C-6.39692871 11.26860596 -6.98135742 11.78721191 -7.58349609 12.3215332 C-9.37419603 13.89912384 -11.18311061 15.45268467 -13 17 C-13.81525146 17.69971924 -13.81525146 17.69971924 -14.64697266 18.41357422 C-23.22729492 25.74243164 -23.22729492 25.74243164 -27 27 C-27.2890625 24.75 -27.2890625 24.75 -27 22 C-25.0859375 20 -25.0859375 20 -22.375 18 C-16.78163507 13.70132812 -11.67830999 9.05706982 -6.59716797 4.16601562 C-2.20894829 0 -2.20894829 0 0 0 Z " fill="#1A1210" transform="translate(30,7)"/>
<path d="M0 0 C0.33 1.32 0.66 2.64 1 4 C-1.64 5.98 -4.28 7.96 -7 10 C-7.33 8.35 -7.66 6.7 -8 5 C-2.25 0 -2.25 0 0 0 Z " fill="#4C9BD4" transform="translate(49,7)"/>
<path d="M0 0 C-0.15481795 2.70931419 -0.48172081 4.46584039 -2.40234375 6.4453125 C-3.89771708 7.67679642 -5.4462924 8.8429837 -7 10 C-7.33 8.35 -7.66 6.7 -8 5 C-2.25 0 -2.25 0 0 0 Z " fill="#171918" transform="translate(51,11)"/>
<path d="M0 0 C0.99 0 1.98 0 3 0 C2.39285714 5.46428571 2.39285714 5.46428571 0.625 7.875 C-1 9 -1 9 -4 9 C-3.47557578 5.2241456 -2.67345333 2.77627845 0 0 Z " fill="#2D2212" transform="translate(37,9)"/>
<path d="M0 0 C0.66 1.32 1.32 2.64 2 4 C1.360625 4.103125 0.72125 4.20625 0.0625 4.3125 C-0.618125 4.539375 -1.29875 4.76625 -2 5 C-2.33 5.99 -2.66 6.98 -3 8 C-4.32 7.67 -5.64 7.34 -7 7 C-3.86206897 0 -3.86206897 0 0 0 Z " fill="#EE9F26" transform="translate(38,5)"/>
</svg>
