<?xml version="1.0" encoding="UTF-8"?>
<svg version="1.1" xmlns="http://www.w3.org/2000/svg" width="669" height="810">
<path d="M0 0 C0.33 0.33 0.66 0.66 1 1 C4.06983652 1.24414016 7.1385673 1.38410674 10.21484375 1.5234375 C11.13394531 1.68070313 12.05304688 1.83796875 13 2 C15 5 15 5 14.875 8.375 C13.94025688 12.24750721 12.6977222 14.12823121 10 17 C9.34 16.67 8.68 16.34 8 16 C8 15.34 8 14.68 8 14 C7.071875 15.485 7.071875 15.485 6.125 17 C5.42375 17.99 4.7225 18.98 4 20 C3.34 20 2.68 20 2 20 C2.33 18.02 2.66 16.04 3 14 C-0.3 15.32 -3.6 16.64 -7 18 C-6.18015625 18.33773437 -5.3603125 18.67546875 -4.515625 19.0234375 C-3.43796875 19.46945313 -2.3603125 19.91546875 -1.25 20.375 C-0.18265625 20.81585938 0.8846875 21.25671875 1.984375 21.7109375 C5 23 5 23 7.09375 24.1875 C9.53888663 25.22968939 11.13946447 25.00890228 13.75 24.625 C14.54921875 24.51414063 15.3484375 24.40328125 16.171875 24.2890625 C16.77515625 24.19367188 17.3784375 24.09828125 18 24 C17.67 24.66 17.34 25.32 17 26 C17.99 26 18.98 26 20 26 C20 26.66 20 27.32 20 28 C17.63386544 29.18306728 16.13219264 29.13354608 13.5 29.125 C12.7059375 29.12757813 11.911875 29.13015625 11.09375 29.1328125 C9 29 9 29 7 28 C6.938125 29.0725 6.87625 30.145 6.8125 31.25 C6 35 6 35 3.9375 37.4375 C0.22884399 39.41018937 -2.91498238 39.60284574 -7 39 C-9.63693252 37.91029844 -11.89701571 36.41437084 -14.25 34.8125 C-26.57052792 26.92290333 -39.10484742 21.64400379 -54.00439453 24.36621094 C-65.08726652 26.89089075 -75.1219859 31.47060805 -85 37 C-85.99773437 37.55558594 -86.99546875 38.11117187 -88.0234375 38.68359375 C-109.80984059 51.6992529 -126.66036071 74.03880223 -133.2890625 98.515625 C-140.09526162 125.75213609 -137.15616929 153.30667165 -122.875 177.75 C-105.01241834 206.60881015 -78.31914523 220.92021369 -46 229 C-46 191.05 -46 153.1 -46 114 C-29.5 114 -13 114 4 114 C4 133.47 4 152.94 4 173 C14.89 173 25.78 173 37 173 C37.30026287 178.54074826 37.55795242 184.05301891 37.71411133 189.59545898 C37.7791797 191.47501453 37.86767898 193.35391956 37.98071289 195.23120117 C38.86953794 210.38144526 38.86953794 210.38144526 35.746521 214.75567627 C31.2767782 219.06778089 25.9915654 221.50210865 20 223 C20 212.11 20 201.22 20 190 C14.72 190 9.44 190 4 190 C4 203.53 4 217.06 4 231 C-9 234 -9 234 -13 234 C-13 199.68 -13 165.36 -13 130 C-18.28 130 -23.56 130 -29 130 C-28.99777939 131.43850815 -28.99555878 132.8770163 -28.99327087 134.3591156 C-28.97304272 147.88294111 -28.95796947 161.40676505 -28.94818783 174.93060207 C-28.94302504 181.88416081 -28.93598266 188.83770827 -28.92456055 195.79125977 C-28.91355306 202.49557209 -28.90772379 209.19987025 -28.90512276 215.90419197 C-28.90326798 218.46837613 -28.89964636 221.03255962 -28.89426994 223.59673882 C-28.88706341 227.17445158 -28.88600889 230.75211519 -28.88647461 234.32983398 C-28.88287933 235.40157364 -28.87928406 236.47331329 -28.87557983 237.57752991 C-28.8769545 238.54653229 -28.87832916 239.51553467 -28.87974548 240.51390076 C-28.87882369 241.36102851 -28.8779019 242.20815626 -28.87695217 243.08095455 C-29 245 -29 245 -30 246 C-50.37922279 247.66100248 -71.94925425 242.30582232 -90 233 C-91.09828125 232.43667969 -92.1965625 231.87335938 -93.328125 231.29296875 C-102.19499715 226.57275016 -109.60561694 220.76740307 -117 214 C-117.76183594 213.3090625 -118.52367187 212.618125 -119.30859375 211.90625 C-124.64794127 206.8271046 -128.88197128 201.09275595 -133 195 C-134.00740234 193.51693359 -134.00740234 193.51693359 -135.03515625 192.00390625 C-151.47279991 166.63482615 -158.8062081 133.19610304 -153.09375 103.33203125 C-152.02338949 98.78153191 -150.60232606 94.38815237 -149 90 C-148.77006348 89.3404834 -148.54012695 88.6809668 -148.30322266 88.00146484 C-137.45092714 57.19569179 -116.46504346 31.56704379 -87.04296875 16.984375 C-71.81535786 9.86638944 -55.49844962 6.40216779 -39.00390625 3.63208008 C-36.36660729 3.18608069 -33.73436312 2.71588734 -31.1015625 2.24414062 C-20.70610815 0.43745309 -10.57024423 -0.76934755 0 0 Z M-17 22 C-15.51251262 25.78557181 -13.44650134 27.41567193 -10.125 29.6875 C-8.82949219 30.59048828 -8.82949219 30.59048828 -7.5078125 31.51171875 C-5.23097009 32.86292897 -3.62667245 33.75198801 -1 34 C1.27144074 32.14567913 1.27144074 32.14567913 3 30 C3.33 30.66 3.66 31.32 4 32 C4.66 30.35 5.32 28.7 6 27 C4.08959948 26.1319092 2.17139263 25.28098217 0.25 24.4375 C-0.81734375 23.96183594 -1.8846875 23.48617187 -2.984375 22.99609375 C-5.98369837 22.0053846 -7.13421241 21.83838221 -10 23 C-6.90672105 25.97675459 -6.90672105 25.97675459 -3 27 C-3 27.66 -3 28.32 -3 29 C-7.84419638 26.92090046 -12.55639631 24.86684109 -17 22 Z " fill="#312D2E" transform="translate(383,219)"/>
<path d="M0 0 C220.77 0 441.54 0 669 0 C669 267.3 669 534.6 669 810 C448.23 810 227.46 810 0 810 C0 542.7 0 275.4 0 0 Z M1 1 C1 267.64 1 534.28 1 809 C221.11 809 441.22 809 668 809 C668 542.36 668 275.72 668 1 C447.89 1 227.78 1 1 1 Z " fill="#FDFDFD" transform="translate(0,0)"/>
<path d="M0 0 C5.61 0 11.22 0 17 0 C17.33 6.6 17.66 13.2 18 20 C19.32 19.01 20.64 18.02 22 17 C27.84780342 15.05073219 34.52211492 15.21992507 40.375 17.0625 C46.72143552 21.74677384 49.57493821 26.17737753 51 34 C51.24181489 37.03693932 51.23510407 40.0487823 51.1953125 43.09375 C51.1924826 43.92588013 51.18965271 44.75801025 51.18673706 45.61535645 C51.17564286 48.24372431 51.15055925 50.8717371 51.125 53.5 C51.11495626 55.29426587 51.10583286 57.08853715 51.09765625 58.8828125 C51.07744997 63.25545143 51.0382821 67.62733357 51 72 C45.06 72 39.12 72 33 72 C32.97421875 69.51984375 32.9484375 67.0396875 32.921875 64.484375 C32.88344471 62.07817307 32.83828791 59.67218473 32.79248047 57.26611328 C32.76428282 55.59596989 32.74306221 53.92569335 32.72900391 52.25537109 C32.70755663 49.85184628 32.66090155 47.44992017 32.609375 45.046875 C32.60814636 44.30193787 32.60691772 43.55700073 32.60565186 42.78948975 C32.50676667 39.27699486 32.25637166 37.3355182 30.09570312 34.5078125 C28.13837708 32.82540434 28.13837708 32.82540434 25.859375 32.828125 C25.16328125 32.96734375 24.4671875 33.1065625 23.75 33.25 C22.5125 33.4975 21.275 33.745 20 34 C18.21107361 38.63865473 17.70495372 42.6269283 17.5859375 47.5859375 C17.56657135 48.28772125 17.5472052 48.989505 17.5272522 49.71255493 C17.46792431 51.93324999 17.42126083 54.15399823 17.375 56.375 C17.33677698 57.88934434 17.29772278 59.40366794 17.2578125 60.91796875 C17.16071116 64.61186543 17.08077587 68.30556666 17 72 C11.39 72 5.78 72 0 72 C0 48.24 0 24.48 0 0 Z " fill="#C76942" transform="translate(254,502)"/>
<path d="M0 0 C0.60328125 0.31710937 1.2065625 0.63421875 1.828125 0.9609375 C8.34766152 4.95769684 12.17756398 11.71025592 14 19 C14 22.96 14 26.92 14 31 C1.13 31.33 -11.74 31.66 -25 32 C-22.36546813 37.0093715 -22.36546813 37.0093715 -18 39 C-13.7776822 39.46914642 -11.7768909 39.58380398 -8.328125 36.9921875 C-4.03631518 34.42314641 -1.00400306 34.53499309 3.875 34.75 C4.65875 34.76804687 5.4425 34.78609375 6.25 34.8046875 C8.16720189 34.85144852 10.08376715 34.92317997 12 35 C11.03148653 40.90187899 8.5058763 44.9093832 3.94921875 48.7109375 C-3.91929876 54.28277201 -10.46739303 55.66182644 -20.04296875 54.58984375 C-28.83935144 52.83521523 -34.96407166 47.22289253 -40 40 C-43.59301101 33.11540509 -44.13768066 25.65999142 -42.30859375 18.16796875 C-39.45570286 9.44218115 -35.07129006 3.54010066 -27 -1 C-18.32389998 -4.37808936 -8.28921638 -4.51138768 0 0 Z M-23 14 C-23.66 15.65 -24.32 17.3 -25 19 C-17.74 19 -10.48 19 -3 19 C-6.01962912 13.96728479 -6.8326883 13.00365148 -12 11 C-16.54765452 11 -19.01302384 11.85884613 -23 14 Z " fill="#C66840" transform="translate(170,521)"/>
<path d="M0 0 C5.45455863 3.22520583 7.89500605 7.26171586 9.5 13.3125 C9.75960321 16.50079496 9.73342692 19.67014984 9.6953125 22.8671875 C9.6924826 23.76873566 9.68965271 24.67028381 9.68673706 25.59915161 C9.67559439 28.46207276 9.6505008 31.32467434 9.625 34.1875 C9.61496255 36.13541213 9.60583804 38.08332919 9.59765625 40.03125 C9.57567443 44.7917887 9.5411855 49.55209027 9.5 54.3125 C3.89 54.3125 -1.72 54.3125 -7.5 54.3125 C-7.54898438 51.90453125 -7.59796875 49.4965625 -7.6484375 47.015625 C-7.70247488 44.67897421 -7.75977147 42.34242445 -7.81738281 40.00585938 C-7.85562358 38.38419141 -7.89048503 36.76244004 -7.921875 35.140625 C-7.96763257 32.80698883 -8.02560816 30.47392438 -8.0859375 28.140625 C-8.09748871 27.41756165 -8.10903992 26.69449829 -8.12094116 25.94952393 C-8.22769706 22.2938512 -8.36814607 19.36395862 -10.5 16.3125 C-13.34083641 14.89208179 -15.35477278 14.99797728 -18.5 15.3125 C-20.81696355 16.77258108 -20.81696355 16.77258108 -22.5 19.3125 C-22.91786702 22.11946003 -23.10474313 24.55101941 -23.109375 27.359375 C-23.12591125 28.13057678 -23.14244751 28.90177856 -23.15948486 29.6963501 C-23.20794593 32.15181454 -23.22933037 34.60665984 -23.25 37.0625 C-23.27816146 38.73049987 -23.30808914 40.39847092 -23.33984375 42.06640625 C-23.41702185 46.14872167 -23.45755286 50.22908551 -23.5 54.3125 C-29.11 54.3125 -34.72 54.3125 -40.5 54.3125 C-40.5 36.4925 -40.5 18.6725 -40.5 0.3125 C-35.22 0.3125 -29.94 0.3125 -24.5 0.3125 C-24.17 0.9725 -23.84 1.6325 -23.5 2.3125 C-22.901875 1.838125 -22.30375 1.36375 -21.6875 0.875 C-15.7666631 -3.35416921 -6.44310199 -3.00920771 0 0 Z " fill="#C6673E" transform="translate(355.5,519.6875)"/>
<path d="M0 0 C7.41252615 4.82243497 11.85074345 9.97283102 15.0234375 18.31640625 C15.0234375 18.97640625 15.0234375 19.63640625 15.0234375 20.31640625 C12.12603128 20.45179906 9.23498129 20.55067454 6.3359375 20.62890625 C5.51931641 20.67080078 4.70269531 20.71269531 3.86132812 20.75585938 C-0.63028389 20.8467827 -2.35448227 20.83329987 -5.93359375 17.859375 C-6.60777344 17.02019531 -7.28195313 16.18101562 -7.9765625 15.31640625 C-11.04086026 13.78425737 -13.5931267 14.08702077 -16.9765625 14.31640625 C-20.68928625 15.7508677 -21.80443341 17.03877869 -23.9140625 20.44140625 C-25.60063416 24.95490199 -24.6913701 28.9275175 -22.9765625 33.31640625 C-20.76990681 36.58552578 -19.46758511 37.17743759 -15.6640625 38.25390625 C-11.27792339 38.32824759 -8.79291706 37.44475783 -4.9765625 35.31640625 C-4.58339844 34.62417969 -4.19023437 33.93195312 -3.78515625 33.21875 C-1.9765625 31.31640625 -1.9765625 31.31640625 1.81640625 30.92578125 C3.28175981 30.95230349 4.74685301 30.99991508 6.2109375 31.06640625 C6.96052734 31.08445312 7.71011719 31.1025 8.48242188 31.12109375 C10.3299746 31.16816516 12.17686909 31.23990859 14.0234375 31.31640625 C15.24621924 34.98475146 14.73243882 35.67871663 13.0859375 39.06640625 C9.64004038 45.6050199 5.11516389 49.53271795 -1.2265625 53.19140625 C-9.21244178 55.58717003 -18.09298938 56.53749303 -25.9765625 53.31640625 C-33.07088772 49.16519783 -39.13854478 43.12095498 -41.9765625 35.31640625 C-43.74330765 25.1644168 -43.20243795 16.59122325 -37.2265625 8.00390625 C-28.27998964 -2.95786 -12.86303882 -6.8618813 0 0 Z " fill="#C66941" transform="translate(231.9765625,520.68359375)"/>
<path d="M0 0 C5.94 0 11.88 0 18 0 C21.66958592 8.89168897 24.82923797 17.92009054 28 27 C30.97 18.09 33.94 9.18 37 0 C43.27 0 49.54 0 56 0 C51.42598932 13.18391313 46.72848034 26.30971353 41.85571289 39.38598633 C40.79934905 42.22281645 39.74819548 45.06154358 38.69726562 47.90039062 C38.01333144 49.73969886 37.3290978 51.57889578 36.64453125 53.41796875 C36.3371553 54.2493486 36.02977936 55.08072845 35.71308899 55.93730164 C33.67418318 61.39149289 31.40849545 66.6982575 29 72 C23.06 72 17.12 72 11 72 C12.82463553 66.34362985 14.822624 60.9469614 17.328125 55.5546875 C18.83522819 49.82419048 16.55476088 44.3146349 14.453125 38.9921875 C14.07350616 38.02117599 14.07350616 38.02117599 13.68621826 37.0305481 C12.88116495 34.97585566 12.06589898 32.92540647 11.25 30.875 C10.7180485 29.52371344 10.18679332 28.17215256 9.65625 26.8203125 C8.61338175 24.16552674 7.56849382 21.51155369 6.52148438 18.85839844 C6.01429707 17.57227582 5.5071354 16.28614309 5 15 C4.62307007 14.04510681 4.62307007 14.04510681 4.23852539 13.07092285 C3.5252346 11.25962277 2.81718422 9.44626165 2.109375 7.6328125 C1.70170898 6.5927002 1.29404297 5.55258789 0.87402344 4.48095703 C0 2 0 2 0 0 Z " fill="#C66941" transform="translate(481,520)"/>
<path d="M0 0 C15.84 0 31.68 0 48 0 C48 5.61 48 11.22 48 17 C43.38 17 38.76 17 34 17 C34 35.15 34 53.3 34 72 C27.4 72 20.8 72 14 72 C14 53.85 14 35.7 14 17 C9.38 17 4.76 17 0 17 C0 11.39 0 5.78 0 0 Z " fill="#C86B44" transform="translate(86,502)"/>
<path d="M0 0 C3.77742822 2.28402636 6.12654815 4.63501527 8.5 8.375 C8.995 12.335 8.995 12.335 9.5 16.375 C3.89 16.375 -1.72 16.375 -7.5 16.375 C-7.83 15.385 -8.16 14.395 -8.5 13.375 C-11.47 12.88 -11.47 12.88 -14.5 12.375 C-14.60813625 14.79944598 -14.60813625 14.79944598 -13.5 17.375 C-10.87833532 18.66012975 -8.57079141 19.5799621 -5.8125 20.4375 C6.49600223 24.43580327 6.49600223 24.43580327 10.375 30.125 C12.26723231 35.59144888 12.02457279 39.65556695 10.375 45.0625 C6.85892659 51.27422968 2.46745688 53.91671412 -4.2109375 55.87109375 C-11.78173999 57.53770385 -18.91167865 56.22384169 -25.51953125 52.12109375 C-30.19781942 48.50650057 -31.90002964 45.0219542 -33.5 39.375 C-33.5 38.715 -33.5 38.055 -33.5 37.375 C-30.74894578 37.26687997 -28.00214913 37.18765055 -25.25 37.125 C-24.47269531 37.09148438 -23.69539063 37.05796875 -22.89453125 37.0234375 C-17.02830508 36.92316013 -17.02830508 36.92316013 -14.125 39.40625 C-13.320625 40.38078125 -13.320625 40.38078125 -12.5 41.375 C-9.79294488 41.23474801 -9.79294488 41.23474801 -7.5 40.375 C-7.5 39.055 -7.5 37.735 -7.5 36.375 C-8.66015625 35.90320313 -8.66015625 35.90320313 -9.84375 35.421875 C-28.8894081 27.5961838 -28.8894081 27.5961838 -32.5 20.375 C-33.34354869 14.56656475 -32.67018761 9.98140727 -29.2265625 5.171875 C-21.79745236 -2.55977809 -9.72648108 -4.34938871 0 0 Z " fill="#C76A42" transform="translate(468.5,519.625)"/>
<path d="M0 0 C3.6230245 3.72366407 5.25 8.13043655 5.25 13.3125 C-0.36 13.3125 -5.97 13.3125 -11.75 13.3125 C-12.08 11.9925 -12.41 10.6725 -12.75 9.3125 C-14.73 9.6425 -16.71 9.9725 -18.75 10.3125 C-18.64204209 12.27199253 -18.64204209 12.27199253 -17.75 14.3125 C-15.48224225 15.53890556 -15.48224225 15.53890556 -12.6875 16.3125 C1.45456505 21.04486418 1.45456505 21.04486418 5.40234375 26.27734375 C7.84095019 32.13224678 7.16690025 39.08004722 4.8125 44.8125 C-1.07294171 50.55439436 -7.37771536 53.02101436 -15.5 53.5625 C-21.55501973 53.45967891 -27.25745146 51.7131614 -32.125 48.0625 C-36.15377464 43.84187895 -37.75 40.27151676 -37.75 34.3125 C-34.97813012 34.20462182 -32.21044463 34.12526673 -29.4375 34.0625 C-28.65181641 34.02898438 -27.86613281 33.99546875 -27.05664062 33.9609375 C-24.88339453 33.92394608 -22.89030099 33.92882366 -20.75 34.3125 C-18.70703125 36.328125 -18.70703125 36.328125 -17.75 38.3125 C-14.78 37.8175 -14.78 37.8175 -11.75 37.3125 C-11.75 35.9925 -11.75 34.6725 -11.75 33.3125 C-12.89597656 32.87679687 -14.04195312 32.44109375 -15.22265625 31.9921875 C-33.46385885 24.88478231 -33.46385885 24.88478231 -36.75 18.3125 C-37.26576376 13.13795208 -37.39299093 8.70136042 -35.1875 3.9375 C-25.26391928 -6.74943308 -12.29264554 -7.54321431 0 0 Z " fill="#C76942" transform="translate(575.75,522.6875)"/>
<path d="M0 0 C6.12975503 3.71976587 11.05768412 8.97173493 13.65625 15.70703125 C15.75092094 24.63215089 15.4080523 33.41733436 10.69921875 41.375 C6.40917746 47.47823553 0.37847256 52.02227998 -6.71484375 54.38671875 C-17.34914336 55.28902296 -25.0911306 54.42483261 -33.73828125 47.84765625 C-39.45654926 42.75670878 -42.20286066 36.73065774 -43.09375 29.171875 C-43.46960208 18.7813836 -40.67486136 11.71091883 -33.65234375 4.11328125 C-24.52062785 -4.0242559 -10.90468011 -5.05338834 0 0 Z M-20.71484375 0.38671875 C-20.71484375 0.71671875 -20.71484375 1.04671875 -20.71484375 1.38671875 C-20.01617187 1.49628906 -19.3175 1.60585938 -18.59765625 1.71875 C-17.23253906 1.95658203 -17.23253906 1.95658203 -15.83984375 2.19921875 C-14.48246094 2.42544922 -14.48246094 2.42544922 -13.09765625 2.65625 C-10.71484375 3.38671875 -10.71484375 3.38671875 -8.71484375 6.38671875 C-9.70484375 6.71671875 -10.69484375 7.04671875 -11.71484375 7.38671875 C-11.38484375 9.36671875 -11.05484375 11.34671875 -10.71484375 13.38671875 C-11.70484375 13.26296875 -12.69484375 13.13921875 -13.71484375 13.01171875 C-18.82625556 12.94900204 -22.03448122 16.174766 -25.71484375 19.38671875 C-25.71484375 18.72671875 -25.71484375 18.06671875 -25.71484375 17.38671875 C-27.36484375 17.71671875 -29.01484375 18.04671875 -30.71484375 18.38671875 C-29.39484375 18.71671875 -28.07484375 19.04671875 -26.71484375 19.38671875 C-26.38484375 21.03671875 -26.05484375 22.68671875 -25.71484375 24.38671875 C-24.10609375 24.57234375 -24.10609375 24.57234375 -22.46484375 24.76171875 C-19.3362076 25.28315811 -17.38003951 25.78760129 -14.71484375 27.38671875 C-14.71484375 28.37671875 -14.71484375 29.36671875 -14.71484375 30.38671875 C-13.39484375 30.71671875 -12.07484375 31.04671875 -10.71484375 31.38671875 C-11.04484375 34.02671875 -11.37484375 36.66671875 -11.71484375 39.38671875 C-12.70484375 39.38671875 -13.69484375 39.38671875 -14.71484375 39.38671875 C-15.77256114 41.01736639 -16.76757421 42.68952748 -17.71484375 44.38671875 C-18.29234375 44.90234375 -18.86984375 45.41796875 -19.46484375 45.94921875 C-19.87734375 46.42359375 -20.28984375 46.89796875 -20.71484375 47.38671875 C-20.48726644 49.54971086 -20.48726644 49.54971086 -19.71484375 51.38671875 C-12.50446797 52.88888037 -6.76662113 51.6452747 -0.21484375 48.38671875 C2.3343748 46.71550894 3.15243605 45.98444402 3.8203125 42.9765625 C3.86189998 38.94257696 3.35315094 35.27278347 2.28515625 31.38671875 C-0.02484375 31.05671875 -2.33484375 30.72671875 -4.71484375 30.38671875 C-5.71484375 23.63671875 -5.71484375 23.63671875 -5.71484375 21.38671875 C-5.05484375 20.93296875 -4.39484375 20.47921875 -3.71484375 20.01171875 C-3.05484375 19.47546875 -2.39484375 18.93921875 -1.71484375 18.38671875 C-1.71484375 17.06671875 -1.71484375 15.74671875 -1.71484375 14.38671875 C-0.72484375 14.05671875 0.26515625 13.72671875 1.28515625 13.38671875 C0.29515625 12.39671875 -0.69484375 11.40671875 -1.71484375 10.38671875 C-0.06484375 10.05671875 1.58515625 9.72671875 3.28515625 9.38671875 C3.78015625 10.37671875 3.78015625 10.37671875 4.28515625 11.38671875 C4.40729519 9.04523644 4.40729519 9.04523644 3.28515625 6.38671875 C-2.30978962 1.85807422 -7.23385846 0.25324365 -14.40234375 0.32421875 C-15.58183594 0.33324219 -16.76132812 0.34226562 -17.9765625 0.3515625 C-18.88019531 0.36316406 -19.78382813 0.37476563 -20.71484375 0.38671875 Z M-20.71484375 6.38671875 C-18.73484375 7.37671875 -18.73484375 7.37671875 -16.71484375 8.38671875 C-16.71484375 7.72671875 -16.71484375 7.06671875 -16.71484375 6.38671875 C-18.03484375 6.38671875 -19.35484375 6.38671875 -20.71484375 6.38671875 Z M-38.71484375 16.38671875 C-41.02811403 23.32652958 -40.72926136 31.18614731 -37.65234375 37.82421875 C-35.13690071 42.21195178 -32.06482358 45.74948265 -27.71484375 48.38671875 C-26.39484375 48.71671875 -25.07484375 49.04671875 -23.71484375 49.38671875 C-24.04484375 44.76671875 -24.37484375 40.14671875 -24.71484375 35.38671875 C-25.37484375 35.38671875 -26.03484375 35.38671875 -26.71484375 35.38671875 C-26.64523437 34.48179687 -26.64523437 34.48179687 -26.57421875 33.55859375 C-26.25768276 28.38443559 -26.25768276 28.38443559 -28.52734375 23.88671875 C-30.73013483 22.2284522 -30.73013483 22.2284522 -33.71484375 21.38671875 C-34.04484375 20.39671875 -34.37484375 19.40671875 -34.71484375 18.38671875 C-35.70484375 18.38671875 -36.69484375 18.38671875 -37.71484375 18.38671875 C-38.04484375 17.72671875 -38.37484375 17.06671875 -38.71484375 16.38671875 Z M6.28515625 19.38671875 C10.28515625 20.38671875 10.28515625 20.38671875 10.28515625 20.38671875 Z " fill="#C86F49" transform="translate(415.71484375,520.61328125)"/>
<path d="M0 0 C3 1 3 1 6 3 C6 3.66 6 4.32 6 5 C7.65 5 9.3 5 11 5 C11 5.66 11 6.32 11 7 C11.66 7 12.32 7 13 7 C13.33 6.01 13.66 5.02 14 4 C15.08403004 21.3043314 15.08403004 21.3043314 9.60546875 29.3125 C8 31 8 31 5 32 C5 31.01 5 30.02 5 29 C4.34 29 3.68 29 3 29 C3 24.71 3 20.42 3 16 C1.88625 16.061875 0.7725 16.12375 -0.375 16.1875 C-1.57125 16.125625 -2.7675 16.06375 -4 16 C-6.46943529 12.29584707 -6.46913089 10.37855495 -6 6 C-4.125 4.0625 -4.125 4.0625 -2 3 C-1.34 3 -0.68 3 0 3 C0 2.01 0 1.02 0 0 Z " fill="#C86D46" transform="translate(415,536)"/>
<path d="M0 0 C1.32 0 2.64 0 4 0 C4.309375 0.9590625 4.309375 0.9590625 4.625 1.9375 C5.07875 2.618125 5.5325 3.29875 6 4 C7.98985949 4.38932033 9.99199544 4.71887936 12 5 C14.375 6.375 14.375 6.375 16 8 C16 8.99 16 9.98 16 11 C18.475 11.495 18.475 11.495 21 12 C20.47731534 14.76276177 19.89130413 17.3260876 19 20 C18.01 20 17.02 20 16 20 C15.9175 20.5775 15.835 21.155 15.75 21.75 C14.79421474 24.61735579 13.14915257 25.91800845 11 28 C10.67 28.99 10.34 29.98 10 31 C9.34 31 8.68 31 8 31 C8 30.34 8 29.68 8 29 C7.34 29 6.68 29 6 29 C5.16203269 24.34462607 4.9838308 20.62921525 6 16 C5.34 16 4.68 16 4 16 C3.896875 14.783125 3.79375 13.56625 3.6875 12.3125 C3.23780688 8.58930552 2.21617222 6.08337005 0 3 C0.66 2.67 1.32 2.34 2 2 C1.34 1.34 0.68 0.68 0 0 Z " fill="#C96F49" transform="translate(385,540)"/>
<path d="M0 0 C0.33 1.32 0.66 2.64 1 4 C0.44828125 3.73316406 -0.1034375 3.46632813 -0.671875 3.19140625 C-3.24882231 2.70951429 -3.24882231 2.70951429 -5.578125 5.08984375 C-6.45984375 6.02957031 -7.3415625 6.96929688 -8.25 7.9375 C-9.58804687 9.34322266 -9.58804687 9.34322266 -10.953125 10.77734375 C-11.96632813 11.87755859 -11.96632813 11.87755859 -13 13 C-12.33484375 13.77730469 -11.6696875 14.55460938 -10.984375 15.35546875 C-9 18 -9 18 -9.25 20.3125 C-9.62125 21.1478125 -9.62125 21.1478125 -10 22 C-10 21.01 -10 20.02 -10 19 C-11.32 19.33 -12.64 19.66 -14 20 C-14.62374299 28.84328948 -14.24497664 35.62682603 -9 43 C-5.88587282 46.52988762 -2.78603861 48.57770248 2 49 C2 49.66 2 50.32 2 51 C3.485 50.505 3.485 50.505 5 50 C5 50.66 5 51.32 5 52 C13.65100096 51.85291961 19.7979669 50.87826498 27 46 C27.66 45.67 28.32 45.34 29 45 C28.68981502 47.97677519 28.51011344 49.5408979 26.2421875 51.58203125 C17.9632937 55.88541664 9.07664591 56.83430668 0.0625 54.11328125 C-7.33238276 50.72020242 -12.98674113 45.79353039 -16.4375 38.375 C-19.06861504 30.89169878 -19.39799386 22.62077464 -16.4375 15.1875 C-13.40599679 9.35024382 -7.34047963 0 0 0 Z " fill="#D7987D" transform="translate(391,520)"/>
<path d="M0 0 C6.14562985 3.72939931 10.98507981 8.96481779 13.67578125 15.66796875 C14.97645703 21.47098379 14.56519347 27.48260073 14.28515625 33.38671875 C13.95515625 33.38671875 13.62515625 33.38671875 13.28515625 33.38671875 C13.23617187 32.60425781 13.1871875 31.82179688 13.13671875 31.015625 C13.06195313 30.00371094 12.9871875 28.99179687 12.91015625 27.94921875 C12.80574219 26.43521484 12.80574219 26.43521484 12.69921875 24.890625 C12.49425781 23.65119141 12.49425781 23.65119141 12.28515625 22.38671875 C10.33542221 21.30690082 10.33542221 21.30690082 8.22265625 20.94921875 C7.58328125 20.76359375 6.94390625 20.57796875 6.28515625 20.38671875 C5.95515625 19.72671875 5.62515625 19.06671875 5.28515625 18.38671875 C3.95438636 18.04329426 2.62083646 17.71052001 1.28515625 17.38671875 C0.62515625 16.72671875 -0.03484375 16.06671875 -0.71484375 15.38671875 C-1.04484375 16.37671875 -1.37484375 17.36671875 -1.71484375 18.38671875 C-1.52921875 17.62359375 -1.34359375 16.86046875 -1.15234375 16.07421875 C-0.48665202 13.297045 -0.48665202 13.297045 -1.71484375 10.38671875 C-0.06484375 10.05671875 1.58515625 9.72671875 3.28515625 9.38671875 C1.88873004 5.88830361 0.59509621 4.64474117 -2.83984375 3.13671875 C-7.41029888 1.26732164 -10.80955858 0.88787619 -15.71484375 1.38671875 C-17.99964628 2.36020502 -17.99964628 2.36020502 -19.71484375 3.38671875 C-20.37484375 3.05671875 -21.03484375 2.72671875 -21.71484375 2.38671875 C-21.71484375 1.39671875 -21.71484375 0.40671875 -21.71484375 -0.61328125 C-22.37484375 -0.94328125 -23.03484375 -1.27328125 -23.71484375 -1.61328125 C-16.06835559 -4.16211064 -7.26403453 -3.3662599 0 0 Z " fill="#D18767" transform="translate(415.71484375,520.61328125)"/>
<path d="M0 0 C3.47768151 2.1743342 5.85351828 5.0061014 8.16796875 8.35546875 C6.3125 8.99609375 6.3125 8.99609375 4.16796875 9.35546875 C2.47862953 7.71178735 0.81536951 6.04118115 -0.83203125 4.35546875 C-6.11922999 1.46247321 -9.95319321 0.87359678 -15.83203125 1.35546875 C-18.11683378 2.32895502 -18.11683378 2.32895502 -19.83203125 3.35546875 C-20.49203125 3.02546875 -21.15203125 2.69546875 -21.83203125 2.35546875 C-21.83203125 1.36546875 -21.83203125 0.37546875 -21.83203125 -0.64453125 C-22.49203125 -0.97453125 -23.15203125 -1.30453125 -23.83203125 -1.64453125 C-16.10117979 -4.22148174 -7.35607333 -3.32403314 0 0 Z " fill="#D7987D" transform="translate(415.83203125,520.64453125)"/>
<path d="M0 0 C2.04367572 0.59733549 4.08486043 1.20319657 6.125 1.8125 C7.26195312 2.14894531 8.39890625 2.48539063 9.5703125 2.83203125 C13 4 13 4 16.125 5.65625 C19.20007129 7.09351158 20.5857137 7.23571438 23.875 6.6875 C25.04675781 6.50767578 25.04675781 6.50767578 26.2421875 6.32421875 C26.82226562 6.21722656 27.40234375 6.11023438 28 6 C27.67 6.66 27.34 7.32 27 8 C27.99 8 28.98 8 30 8 C30 8.66 30 9.32 30 10 C27.63386544 11.18306728 26.13219264 11.13354608 23.5 11.125 C22.7059375 11.12757813 21.911875 11.13015625 21.09375 11.1328125 C19 11 19 11 17 10 C17 11.65 17 13.3 17 15 C15 11.25 15 11.25 15 9 C13.274773 8.32320342 11.54461061 7.65898 9.8125 7 C8.84957031 6.62875 7.88664062 6.2575 6.89453125 5.875 C4.07817642 5.02363228 1.91835561 4.82927353 -1 5 C-0.67 3.35 -0.34 1.7 0 0 Z " fill="#6A6868" transform="translate(373,237)"/>
<path d="M0 0 C0.33 1.32 0.66 2.64 1 4 C-7.72324723 10 -7.72324723 10 -13 10 C-14.875 8.5625 -14.875 8.5625 -16 7 C-14.845 6.773125 -13.69 6.54625 -12.5 6.3125 C-7.71314117 5.14142918 -4.00959834 2.79392225 0 0 Z " fill="#D49175" transform="translate(419,565)"/>
<path d="M0 0 C0.33 1.32 0.66 2.64 1 4 C0.44828125 3.73316406 -0.1034375 3.46632813 -0.671875 3.19140625 C-3.24882231 2.70951429 -3.24882231 2.70951429 -5.578125 5.08984375 C-6.45984375 6.02957031 -7.3415625 6.96929688 -8.25 7.9375 C-9.58804687 9.34322266 -9.58804687 9.34322266 -10.953125 10.77734375 C-11.62859375 11.51082031 -12.3040625 12.24429688 -13 13 C-13.33 12.34 -13.66 11.68 -14 11 C-4.93349169 0 -4.93349169 0 0 0 Z " fill="#D38D70" transform="translate(391,520)"/>
<path d="M0 0 C1.32 0 2.64 0 4 0 C4.309375 0.9590625 4.309375 0.9590625 4.625 1.9375 C5.89538209 4.34925077 5.89538209 4.34925077 9.125 4.75 C10.07375 4.8325 11.0225 4.915 12 5 C9 6 9 6 5 6 C5 6.99 5 7.98 5 9 C2.24616077 7.62308038 1.48516899 5.63279958 0 3 C0.66 2.67 1.32 2.34 2 2 C1.34 1.34 0.68 0.68 0 0 Z " fill="#E2B5A2" transform="translate(385,540)"/>
<path d="M0 0 C2.17854707 3.2678206 3.49760034 6.38058265 5 10 C4.34 10.66 3.68 11.32 3 12 C2.13341385 10.73760288 1.28207941 9.46472499 0.4375 8.1875 C-0.27599609 7.12595703 -0.27599609 7.12595703 -1.00390625 6.04296875 C-2 4 -2 4 -1 1 C-0.67 0.67 -0.34 0.34 0 0 Z " fill="#DAA188" transform="translate(376,553)"/>
<path d="M0 0 C0.66 0.33 1.32 0.66 2 1 C-1.63 4.63 -5.26 8.26 -9 12 C-9 8.47601214 -8.44884893 7.98495633 -6.1875 5.4375 C-5.40439453 4.53837891 -5.40439453 4.53837891 -4.60546875 3.62109375 C-3 2 -3 2 0 0 Z " fill="#D5977C" transform="translate(203,521)"/>
<path d="M0 0 C5.445 1.485 5.445 1.485 11 3 C10.01 4.485 10.01 4.485 9 6 C5.7 5.67 2.4 5.34 -1 5 C-0.67 3.35 -0.34 1.7 0 0 Z " fill="#8C8A8B" transform="translate(373,237)"/>
<path d="M0 0 C0.66 0.33 1.32 0.66 2 1 C-1.63 4.63 -5.26 8.26 -9 12 C-9 7.8407692 -6.75316432 5.85455565 -4 3 C-1.6875 1.125 -1.6875 1.125 0 0 Z " fill="#D99E84" transform="translate(141,521)"/>
<path d="M0 0 C3.36591866 1.44253657 5.51047079 3.33264727 8 6 C7.67 6.66 7.34 7.32 7 8 C4.13792848 6.71700242 1.9754912 5.469364 0 3 C0 2.01 0 1.02 0 0 Z " fill="#D7967B" transform="translate(380,563)"/>
<path d="M0 0 C2.41793589 1.20896794 2.79103206 1.58206411 4 4 C1.59454362 5.20272819 0.05003047 5.10071472 -2.625 5.0625 C-3.85089844 5.04896484 -3.85089844 5.04896484 -5.1015625 5.03515625 C-6.04128906 5.01775391 -6.04128906 5.01775391 -7 5 C-4.702779 3.25728062 -2.40133271 1.60088848 0 0 Z " fill="#A2A0A1" transform="translate(399,243)"/>
<path d="M0 0 C0.66 0.33 1.32 0.66 2 1 C-0.97 3.97 -3.94 6.94 -7 10 C-7.33 9.34 -7.66 8.68 -8 8 C-3.375 2.25 -3.375 2.25 0 0 Z " fill="#D59276" transform="translate(548,520)"/>
<path d="M0 0 C0.33 0.66 0.66 1.32 1 2 C-3.625 4.125 -3.625 4.125 -7 3 C-7.99 2.34 -8.98 1.68 -10 1 C-8.71073008 0.63720544 -7.41846728 0.28503302 -6.125 -0.0625 C-5.40570313 -0.25972656 -4.68640625 -0.45695313 -3.9453125 -0.66015625 C-2 -1 -2 -1 0 0 Z " fill="#DFAC96" transform="translate(413,571)"/>
<path d="M0 0 C5.75 0.75 5.75 0.75 8 3 C7.67 3.66 7.34 4.32 7 5 C4.69 4.34 2.38 3.68 0 3 C0 2.01 0 1.02 0 0 Z " fill="#DBA088" transform="translate(408,519)"/>
<path d="M0 0 C0.33 0.66 0.66 1.32 1 2 C-1.31 2.33 -3.62 2.66 -6 3 C-6.33 2.01 -6.66 1.02 -7 0 C-4.30234372 -1.34882814 -2.84835666 -0.80338265 0 0 Z " fill="#D9A189" transform="translate(421,531)"/>
<path d="M0 0 C1.32 0 2.64 0 4 0 C4 0.66 4 1.32 4 2 C5.65 2.33 7.3 2.66 9 3 C9 3.33 9 3.66 9 4 C3.48 4.368 3.48 4.368 1.125 2.5625 C0 1 0 1 0 0 Z " fill="#CD7F5E" transform="translate(386,569)"/>
<path d="M0 0 C0.66 0.33 1.32 0.66 2 1 C-0.31 3.31 -2.62 5.62 -5 8 C-5.33 7.34 -5.66 6.68 -6 6 C-4 4 -2 2 0 0 Z " fill="#D99B81" transform="translate(444,521)"/>
</svg>
