<?xml version="1.0" encoding="UTF-8"?>
<svg version="1.1" xmlns="http://www.w3.org/2000/svg" width="454" height="550">
<path d="M0 0 C1.43712517 0.149482 2.87463944 0.29526559 4.3125 0.4375 C8 1 8 1 10 3 C9.77170613 9.27808136 9.77170613 9.27808136 7.0625 11.8125 C6.381875 12.204375 5.70125 12.59625 5 13 C4.34 13.66 3.68 14.32 3 15 C4.093125 15.0825 5.18625 15.165 6.3125 15.25 C10 16 10 16 11.9375 18.0625 C12.288125 18.701875 12.63875 19.34125 13 20 C12 21 12 21 8.4375 21.0625 C7.303125 21.041875 6.16875 21.02125 5 21 C4.731875 21.78375 4.46375 22.5675 4.1875 23.375 C3 26 3 26 0 28 C-5.81331946 28.87411957 -9.37760037 26.40729075 -14.1875 23.5625 C-23.03447307 18.6436171 -29.60094782 16.92289373 -39.6875 18.9375 C-58.45902624 24.30776759 -74.91089131 36.11886454 -84.62109375 53.2109375 C-93.44432988 71.05736978 -95.28282523 89.48426212 -89.07983398 108.42089844 C-87.25264391 113.65327697 -85.04540913 118.37904797 -82 123 C-81.62230469 123.60972656 -81.24460938 124.21945312 -80.85546875 124.84765625 C-77.63010607 129.75581685 -73.53077712 133.31463963 -69 137 C-68.3090625 137.58910156 -67.618125 138.17820312 -66.90625 138.78515625 C-57.12294325 146.84929496 -47.17585053 150.25358445 -35 154 C-34.67 128.59 -34.34 103.18 -34 77 C-22.12 77 -10.24 77 2 77 C2 90.2 2 103.4 2 117 C9.59 117 17.18 117 25 117 C25.18450061 121.02313838 25.34334254 125.03543556 25.43945312 129.06054688 C25.47951753 130.426614 25.53399241 131.79234156 25.60351562 133.15722656 C26.16547643 144.47908398 26.16547643 144.47908398 23.28686523 148.2355957 C19.88297406 150.84370127 16.38553328 152.86710505 12 153 C11 152 11 152 10.88647461 149.95874023 C10.89432983 148.64691772 10.89432983 148.64691772 10.90234375 147.30859375 C10.90717773 145.89223633 10.90717773 145.89223633 10.91210938 144.44726562 C10.92467773 142.95743164 10.92467773 142.95743164 10.9375 141.4375 C10.94201172 140.44041016 10.94652344 139.44332031 10.95117188 138.41601562 C10.96299993 135.94395151 10.97948151 133.47200482 11 131 C8.03 131 5.06 131 2 131 C2 139.91 2 148.82 2 158 C-3 160 -3 160 -11 160 C-11 136.9 -11 113.8 -11 90 C-13.97 90 -16.94 90 -20 90 C-19.99777939 90.97496933 -19.99555878 91.94993866 -19.99327087 92.95445251 C-19.97303903 102.12229718 -19.95802766 111.29013734 -19.94818783 120.45799923 C-19.94295911 125.17179733 -19.93586166 129.88557747 -19.92456055 134.59936523 C-19.91373127 139.14455404 -19.90772308 143.68972552 -19.90512276 148.23492622 C-19.90326858 149.97294958 -19.89964811 151.71097194 -19.89426994 153.44898796 C-19.88705897 155.87478595 -19.88600908 158.30051146 -19.88647461 160.72631836 C-19.88287933 161.45208069 -19.87928406 162.17784302 -19.87557983 162.92559814 C-19.88594784 167.88594784 -19.88594784 167.88594784 -21 169 C-42.17828404 169.12712055 -63.05585921 163.56291579 -79 149 C-79.81855469 148.26136719 -80.63710937 147.52273438 -81.48046875 146.76171875 C-95.01005556 133.92805622 -102.62897784 118.23747239 -106 100 C-106.18304688 99.05898437 -106.36609375 98.11796875 -106.5546875 97.1484375 C-109.63048937 75.40197867 -103.37966038 53.99830097 -91 36 C-71.02301869 10.55019956 -44.20341011 3.81366024 -13.42895508 -0.34765625 C-8.6825577 -0.91894165 -4.7625324 -0.86591498 0 0 Z M-1 11 C-1.66 11.66 -2.32 12.32 -3 13 C-2.01 13 -1.02 13 0 13 C-0.33 12.34 -0.66 11.68 -1 11 Z M-2 18 C-1.67 18.99 -1.34 19.98 -1 21 C-0.01 20.34 0.98 19.68 2 19 C0.68 18.67 -0.64 18.34 -2 18 Z " fill="#221F1C" transform="translate(261,148)"/>
<path d="M0 0 C1.43712517 0.149482 2.87463944 0.29526559 4.3125 0.4375 C8 1 8 1 10 3 C9.625 6.625 9.625 6.625 9 10 C8.01 9.505 8.01 9.505 7 9 C7 7.35 7 5.7 7 4 C-4.58734557 1.82192753 -16.47176542 2.86283067 -28 5 C-28.33 5.33 -28.66 5.66 -29 6 C-30.99823559 6.13381042 -32.99893037 6.23143815 -35 6.3125 C-40.25207833 6.67905727 -44.16320892 7.52966355 -48.83203125 9.90234375 C-51.13431411 11.06800408 -53.45966099 11.9687739 -55.875 12.875 C-61.52033815 15.10851385 -66.75595212 17.95400673 -72 21 C-72.96873047 21.56074219 -72.96873047 21.56074219 -73.95703125 22.1328125 C-76.99838914 24.01238647 -78.78365194 25.59422544 -80 29 C-80.66 29 -81.32 29 -82 29 C-82.40798828 29.87398437 -82.40798828 29.87398437 -82.82421875 30.765625 C-83.98555979 32.9725588 -85.27722655 34.78938694 -86.8125 36.75 C-91.45009333 42.86936096 -95.14864117 48.50088643 -97.32421875 55.921875 C-98.02729864 58.08394726 -98.94271295 59.99031549 -100 62 C-101.91492609 65.9424949 -102.38505247 69.57025809 -102.78125 73.87890625 C-103 76 -103 76 -103.5625 78.4375 C-105.87042824 91.95536539 -101.4590212 105.4298428 -96.98828125 118.05078125 C-96 121 -96 121 -96 123 C-95.34 123 -94.68 123 -94 123 C-93.67 123.928125 -93.34 124.85625 -93 125.8125 C-90.67417562 131.28436701 -86.41995902 139.29002049 -81 142 C-81 142.66 -81 143.32 -81 144 C-79.68 144.66 -78.36 145.32 -77 146 C-77 146.66 -77 147.32 -77 148 C-76.34 148 -75.68 148 -75 148 C-75 148.66 -75 149.32 -75 150 C-73.68 150.33 -72.36 150.66 -71 151 C-71 151.66 -71 152.32 -71 153 C-69.9790625 153.37125 -69.9790625 153.37125 -68.9375 153.75 C-66 155 -66 155 -62.75 156.9375 C-56.00672508 160.8468555 -48.8246722 162.36109357 -41.1875 163.5703125 C-39 164 -39 164 -38 165 C-32.72 165.33 -27.44 165.66 -22 166 C-22 140.59 -22 115.18 -22 89 C-15 87 -15 87 -13 88 C-8.85496339 88.24787017 -8.85496339 88.24787017 -5 87 C-5.33 85.68 -5.66 84.36 -6 83 C-5.34 82.67 -4.68 82.34 -4 82 C-2.515 82.495 -2.515 82.495 -1 83 C-0.505 81.02 -0.505 81.02 0 79 C-15.345 79.495 -15.345 79.495 -31 80 C-30.99476318 82.29702881 -30.98952637 84.59405762 -30.98413086 86.96069336 C-30.96759445 94.53235636 -30.95652857 102.10402013 -30.94818783 109.67569637 C-30.94295918 114.2684264 -30.93586188 118.861138 -30.92456055 123.45385742 C-30.913731 127.88233688 -30.90772302 132.31079856 -30.90512276 136.73929024 C-30.90326863 138.43265628 -30.89964825 140.12602129 -30.89426994 141.81937981 C-30.8870586 144.18291232 -30.8860091 146.54637045 -30.88647461 148.90991211 C-30.88287933 149.61697296 -30.87928406 150.32403381 -30.87557983 151.05252075 C-30.88594784 155.88594784 -30.88594784 155.88594784 -32 157 C-37.22204244 157.33985758 -41.17166568 156.5481805 -46.0625 154.75 C-47.22910156 154.33234375 -48.39570313 153.9146875 -49.59765625 153.484375 C-53.0536468 151.97659497 -55.92603326 150.17115416 -59 148 C-61.58022591 146.42669152 -64.17057515 144.90523603 -66.8125 143.4375 C-67.534375 142.963125 -68.25625 142.48875 -69 142 C-69 141.34 -69 140.68 -69 140 C-70.05380859 139.73316406 -70.05380859 139.73316406 -71.12890625 139.4609375 C-75.22922433 137.37451714 -77.27436379 134.30264412 -79.9375 130.625 C-80.72918579 129.54677979 -80.72918579 129.54677979 -81.53686523 128.44677734 C-93.52981451 111.77559588 -98.6034496 93.21966666 -95.50390625 72.71875 C-93.96315213 65.9638054 -91.37696064 60.03314708 -88 54 C-87.34 54 -86.68 54 -86 54 C-86.18175781 54.52207031 -86.36351562 55.04414063 -86.55078125 55.58203125 C-93.69196326 76.49287705 -95.13160781 95.2281009 -86 116 C-83.04234597 121.82190846 -79.85898881 126.59301015 -75 131 C-74.41089844 131.65355469 -73.82179687 132.30710937 -73.21484375 132.98046875 C-68.89098501 137.67609852 -64.3353146 141.39747881 -58.9375 144.75 C-58.11886475 145.27835449 -58.11886475 145.27835449 -57.28369141 145.81738281 C-50.17515815 150.03467777 -43.26877351 151.41600828 -35 154 C-34.67 128.59 -34.34 103.18 -34 77 C-22.12 77 -10.24 77 2 77 C2 90.2 2 103.4 2 117 C9.59 117 17.18 117 25 117 C25.18450061 121.02313838 25.34334254 125.03543556 25.43945312 129.06054688 C25.47951753 130.426614 25.53399241 131.79234156 25.60351562 133.15722656 C26.16547643 144.47908398 26.16547643 144.47908398 23.28686523 148.2355957 C19.88297406 150.84370127 16.38553328 152.86710505 12 153 C11 152 11 152 10.88647461 149.95874023 C10.89432983 148.64691772 10.89432983 148.64691772 10.90234375 147.30859375 C10.90717773 145.89223633 10.90717773 145.89223633 10.91210938 144.44726562 C10.92467773 142.95743164 10.92467773 142.95743164 10.9375 141.4375 C10.94201172 140.44041016 10.94652344 139.44332031 10.95117188 138.41601562 C10.96299993 135.94395151 10.97948151 133.47200482 11 131 C8.03 131 5.06 131 2 131 C2 139.91 2 148.82 2 158 C-3 160 -3 160 -11 160 C-11 136.9 -11 113.8 -11 90 C-13.97 90 -16.94 90 -20 90 C-19.99777939 90.97496933 -19.99555878 91.94993866 -19.99327087 92.95445251 C-19.97303903 102.12229718 -19.95802766 111.29013734 -19.94818783 120.45799923 C-19.94295911 125.17179733 -19.93586166 129.88557747 -19.92456055 134.59936523 C-19.91373127 139.14455404 -19.90772308 143.68972552 -19.90512276 148.23492622 C-19.90326858 149.97294958 -19.89964811 151.71097194 -19.89426994 153.44898796 C-19.88705897 155.87478595 -19.88600908 158.30051146 -19.88647461 160.72631836 C-19.88287933 161.45208069 -19.87928406 162.17784302 -19.87557983 162.92559814 C-19.88594784 167.88594784 -19.88594784 167.88594784 -21 169 C-42.17828404 169.12712055 -63.05585921 163.56291579 -79 149 C-79.81855469 148.26136719 -80.63710937 147.52273438 -81.48046875 146.76171875 C-95.01005556 133.92805622 -102.62897784 118.23747239 -106 100 C-106.18304688 99.05898437 -106.36609375 98.11796875 -106.5546875 97.1484375 C-109.63048937 75.40197867 -103.37966038 53.99830097 -91 36 C-71.02301869 10.55019956 -44.20341011 3.81366024 -13.42895508 -0.34765625 C-8.6825577 -0.91894165 -4.7625324 -0.86591498 0 0 Z " fill="#221F1C" transform="translate(261,148)"/>
<path d="M0 0 C5.70734256 4.05381341 9.20498053 9.27934586 11.52734375 15.859375 C12.14609375 14.0340625 12.14609375 14.0340625 12.77734375 12.171875 C14.89765342 6.60606211 17.78784443 2.43981322 23.21484375 -0.40234375 C29.346396 -2.35988323 36.30248567 -2.42965726 42.29296875 -0.03515625 C47.29822389 3.0558374 50.31126496 6.41990887 52.52734375 11.859375 C52.11328125 14.0703125 52.11328125 14.0703125 51.52734375 15.859375 C42.4738939 17.47669031 42.4738939 17.47669031 38.65234375 14.984375 C37.95109375 14.283125 37.24984375 13.581875 36.52734375 12.859375 C33.27084752 11.53642341 30.8949758 12.01746699 27.52734375 12.859375 C26.38392831 18.72963631 26.38392831 18.72963631 27.58984375 24.421875 C29.52179521 26.0802762 29.52179521 26.0802762 32.40234375 26.359375 C35.62585644 26.13724064 35.62585644 26.13724064 37.71484375 23.859375 C42.03093129 20.79015719 46.39171056 21.53558727 51.52734375 21.859375 C52.51734375 23.839375 52.51734375 23.839375 53.52734375 25.859375 C48.8309225 32.50860372 44.82129875 37.90785618 36.52734375 39.859375 C29.51503772 40.67747737 24.27417892 39.01359808 18.52734375 34.859375 C14.69691965 30.58013353 12.41913147 26.55078425 11.52734375 20.859375 C9.33485885 23.72821466 9.33485885 23.72821466 8.90234375 27.109375 C6.74671862 32.98835262 2.36742211 36.22632994 -2.97265625 39.296875 C-10.16771654 40.91576356 -14.80927844 39.83431605 -21.203125 36.34765625 C-26.2989954 33.0059581 -29.12468641 28.86396795 -30.47265625 22.859375 C-31.10610774 16.01809893 -29.31512695 10.86191984 -25.78515625 5.109375 C-19.01192925 -1.48079181 -8.90715258 -4.10882868 0 0 Z M-14.47265625 11.859375 C-14.47265625 12.519375 -14.47265625 13.179375 -14.47265625 13.859375 C-10.84265625 13.859375 -7.21265625 13.859375 -3.47265625 13.859375 C-5.17524672 10.59691998 -5.17524672 10.59691998 -8.41015625 10.046875 C-11.64697079 9.53899405 -11.64697079 9.53899405 -14.47265625 11.859375 Z M-15.47265625 23.859375 C-15.14265625 24.849375 -14.81265625 25.839375 -14.47265625 26.859375 C-11.1180747 27.62460301 -11.1180747 27.62460301 -7.47265625 27.859375 C-5.48796245 26.62851458 -5.48796245 26.62851458 -4.47265625 24.859375 C-4.47265625 24.529375 -4.47265625 24.199375 -4.47265625 23.859375 C-8.10265625 23.859375 -11.73265625 23.859375 -15.47265625 23.859375 Z " fill="#B2B2B1" transform="translate(115.47265625,352.140625)"/>
<path d="M0 0 C1.97909398 -0.02686553 3.95828971 -0.04633375 5.9375 -0.0625 C7.03964844 -0.07410156 8.14179688 -0.08570313 9.27734375 -0.09765625 C12 0 12 0 13 1 C13.07226502 2.85287502 13.0838122 4.70833878 13.0625 6.5625 C13.05347656 7.57441406 13.04445312 8.58632813 13.03515625 9.62890625 C13.02355469 10.41136719 13.01195312 11.19382812 13 12 C13.99 11.67 14.98 11.34 16 11 C21.2142052 10.50068051 25.64410807 10.41890346 30.5 12.5 C35.42148929 17.42148929 36.18338438 22.75404021 36.29296875 29.46875 C36.27321653 31.81268043 36.23771734 34.15652432 36.1875 36.5 C36.16719727 38.30597656 36.16719727 38.30597656 36.14648438 40.1484375 C36.11135352 43.09942973 36.06215996 46.04947412 36 49 C32.17808044 51.11675545 29.38704487 51.31905781 25 51 C24.01 50.34 23.02 49.68 22 49 C21.58349609 46.67749023 21.58349609 46.67749023 21.5234375 43.80859375 C21.4925 42.78185547 21.4615625 41.75511719 21.4296875 40.69726562 C21.40261719 39.08368164 21.40261719 39.08368164 21.375 37.4375 C21.32422032 35.311101 21.26973854 33.18478605 21.2109375 31.05859375 C21.19337402 30.11298584 21.17581055 29.16737793 21.15771484 28.19311523 C21.24222203 26.02403343 21.24222203 26.02403343 20 25 C18.33382885 24.95936168 16.66611905 24.957279 15 25 C13.74161443 27.51677113 13.79181027 29.41293288 13.68359375 32.2265625 C13.64169922 33.2578125 13.59980469 34.2890625 13.55664062 35.3515625 C13.51732422 36.43179688 13.47800781 37.51203125 13.4375 38.625 C13.39431641 39.71296875 13.35113281 40.8009375 13.30664062 41.921875 C13.2003547 44.6144517 13.09831943 47.30712253 13 50 C10.15785932 50.94738023 8.32391609 51.13460559 5.375 51.125 C4.18003906 51.12886719 4.18003906 51.12886719 2.9609375 51.1328125 C1 51 1 51 0 50 C-1.31240906 40.82933916 -1.10439271 31.42830856 -1.125 22.1875 C-1.12959229 21.03137207 -1.13418457 19.87524414 -1.13891602 18.68408203 C-1.12755394 12.37131527 -0.83793287 6.25789546 0 0 Z " fill="#B2B2B1" transform="translate(172,340)"/>
<path d="M0 0 C4.90381233 4.78121702 5.68213352 9.30756462 5.8984375 15.95703125 C5.90636033 18.38802048 5.89811466 20.81910776 5.875 23.25 C5.88660156 24.48943359 5.89820313 25.72886719 5.91015625 27.00585938 C5.90628906 28.18599609 5.90242188 29.36613281 5.8984375 30.58203125 C5.89505371 31.65815674 5.89166992 32.73428223 5.88818359 33.84301758 C5.76008301 34.69919678 5.63198242 35.55537598 5.5 36.4375 C2.342224 38.542684 1.54602866 38.69039344 -2.0625 38.625 C-2.84753906 38.61855469 -3.63257813 38.61210937 -4.44140625 38.60546875 C-6.5 38.4375 -6.5 38.4375 -8.5 37.4375 C-8.995 24.5675 -8.995 24.5675 -9.5 11.4375 C-11.48 11.7675 -13.46 12.0975 -15.5 12.4375 C-16.75838557 14.95427113 -16.70818973 16.85043288 -16.81640625 19.6640625 C-16.85830078 20.6953125 -16.90019531 21.7265625 -16.94335938 22.7890625 C-17.00233398 24.40941406 -17.00233398 24.40941406 -17.0625 26.0625 C-17.10568359 27.15046875 -17.14886719 28.2384375 -17.19335938 29.359375 C-17.2996453 32.0519517 -17.40168057 34.74462253 -17.5 37.4375 C-20.14440639 38.3189688 -21.78060752 38.59924818 -24.5 38.625 C-25.5209375 38.64626953 -25.5209375 38.64626953 -26.5625 38.66796875 C-28.5 38.4375 -28.5 38.4375 -31.5 36.4375 C-31.77948129 33.76519947 -31.87216218 31.32764746 -31.828125 28.65625 C-31.82625183 27.88696167 -31.82437866 27.11767334 -31.82244873 26.32507324 C-31.81572239 24.69762848 -31.80179627 23.07020005 -31.78125 21.44287109 C-31.75012397 18.94743887 -31.74028293 16.45263825 -31.734375 13.95703125 C-31.72520388 12.37759644 -31.71482776 10.79816808 -31.703125 9.21875 C-31.69887512 8.4697644 -31.69462524 7.72077881 -31.69024658 6.94909668 C-31.61720324 1.67190648 -31.61720324 1.67190648 -30.5 -0.5625 C-29.59636719 -0.55089844 -28.69273437 -0.53929687 -27.76171875 -0.52734375 C-25.99248047 -0.51380859 -25.99248047 -0.51380859 -24.1875 -0.5 C-23.01574219 -0.48839844 -21.84398437 -0.47679687 -20.63671875 -0.46484375 C-2.31871944 -1.03514261 -2.31871944 -1.03514261 0 0 Z " fill="#B3B3B2" transform="translate(243.5,352.5625)"/>
<path d="M0 0 C1.43712517 0.149482 2.87463944 0.29526559 4.3125 0.4375 C8 1 8 1 10 3 C9.625 6.625 9.625 6.625 9 10 C8.01 9.505 8.01 9.505 7 9 C7 7.35 7 5.7 7 4 C-4.58734557 1.82192753 -16.47176542 2.86283067 -28 5 C-28.33 5.33 -28.66 5.66 -29 6 C-30.99823559 6.13381042 -32.99893037 6.23143815 -35 6.3125 C-40.25207833 6.67905727 -44.16320892 7.52966355 -48.83203125 9.90234375 C-51.13431411 11.06800408 -53.45966099 11.9687739 -55.875 12.875 C-61.52033815 15.10851385 -66.75595212 17.95400673 -72 21 C-72.96873047 21.56074219 -72.96873047 21.56074219 -73.95703125 22.1328125 C-76.99838914 24.01238647 -78.78365194 25.59422544 -80 29 C-80.66 29 -81.32 29 -82 29 C-82.40798828 29.87398437 -82.40798828 29.87398437 -82.82421875 30.765625 C-83.98555979 32.9725588 -85.27722655 34.78938694 -86.8125 36.75 C-91.45009333 42.86936096 -95.14864117 48.50088643 -97.32421875 55.921875 C-98.02729864 58.08394726 -98.94271295 59.99031549 -100 62 C-101.91492609 65.9424949 -102.38505247 69.57025809 -102.78125 73.87890625 C-103 76 -103 76 -103.5625 78.4375 C-105.87042824 91.95536539 -101.4590212 105.4298428 -96.98828125 118.05078125 C-96 121 -96 121 -96 123 C-95.34 123 -94.68 123 -94 123 C-93.67 123.928125 -93.34 124.85625 -93 125.8125 C-90.67417562 131.28436701 -86.41995902 139.29002049 -81 142 C-81 142.66 -81 143.32 -81 144 C-79.68 144.66 -78.36 145.32 -77 146 C-77 146.66 -77 147.32 -77 148 C-76.34 148 -75.68 148 -75 148 C-75 148.66 -75 149.32 -75 150 C-73.68 150.33 -72.36 150.66 -71 151 C-71 151.66 -71 152.32 -71 153 C-69.9790625 153.37125 -69.9790625 153.37125 -68.9375 153.75 C-66 155 -66 155 -62.75 156.9375 C-56.00672508 160.8468555 -48.8246722 162.36109357 -41.1875 163.5703125 C-39 164 -39 164 -38 165 C-32.72 165.33 -27.44 165.66 -22 166 C-22 140.59 -22 115.18 -22 89 C-15 87 -15 87 -13 88 C-11.35 88.33 -9.7 88.66 -8 89 C-8.33 111.77 -8.66 134.54 -9 158 C-5.04 157.01 -5.04 157.01 -1 156 C-0.96241577 154.92516357 -0.96241577 154.92516357 -0.92407227 153.82861328 C-0.80830249 150.59388486 -0.68549031 147.35946159 -0.5625 144.125 C-0.52318359 142.99707031 -0.48386719 141.86914062 -0.44335938 140.70703125 C-0.40146484 139.63066406 -0.35957031 138.55429687 -0.31640625 137.4453125 C-0.27974854 136.45031738 -0.24309082 135.45532227 -0.20532227 134.43017578 C0 132 0 132 1 130 C2.98 130 4.96 130 7 130 C7 130.33 7 130.66 7 131 C5.35 131 3.7 131 2 131 C2 139.91 2 148.82 2 158 C-3 160 -3 160 -11 160 C-11 136.9 -11 113.8 -11 90 C-13.97 90 -16.94 90 -20 90 C-19.99777939 90.97496933 -19.99555878 91.94993866 -19.99327087 92.95445251 C-19.97303903 102.12229718 -19.95802766 111.29013734 -19.94818783 120.45799923 C-19.94295911 125.17179733 -19.93586166 129.88557747 -19.92456055 134.59936523 C-19.91373127 139.14455404 -19.90772308 143.68972552 -19.90512276 148.23492622 C-19.90326858 149.97294958 -19.89964811 151.71097194 -19.89426994 153.44898796 C-19.88705897 155.87478595 -19.88600908 158.30051146 -19.88647461 160.72631836 C-19.88287933 161.45208069 -19.87928406 162.17784302 -19.87557983 162.92559814 C-19.88594784 167.88594784 -19.88594784 167.88594784 -21 169 C-42.17828404 169.12712055 -63.05585921 163.56291579 -79 149 C-79.81855469 148.26136719 -80.63710937 147.52273438 -81.48046875 146.76171875 C-95.01005556 133.92805622 -102.62897784 118.23747239 -106 100 C-106.18304688 99.05898437 -106.36609375 98.11796875 -106.5546875 97.1484375 C-109.63048937 75.40197867 -103.37966038 53.99830097 -91 36 C-71.02301869 10.55019956 -44.20341011 3.81366024 -13.42895508 -0.34765625 C-8.6825577 -0.91894165 -4.7625324 -0.86591498 0 0 Z " fill="#090707" transform="translate(261,148)"/>
<path d="M0 0 C3.96 0 7.92 0 12 0 C16.28571429 9.57142857 16.28571429 9.57142857 18 14 C20.39990024 11.60009976 20.9662213 9.63463217 22.0625 6.4375 C23.90277778 1.09722222 23.90277778 1.09722222 25 0 C27.01964199 -0.07244053 29.04167124 -0.08377188 31.0625 -0.0625 C32.71958984 -0.04896484 32.71958984 -0.04896484 34.41015625 -0.03515625 C35.26480469 -0.02355469 36.11945313 -0.01195312 37 0 C38.47432999 4.57964273 36.86831193 7.86111141 35.17578125 12.16796875 C34.87310837 12.96221756 34.57043549 13.75646637 34.2585907 14.57478333 C33.28677384 17.11641146 32.2995929 19.65177123 31.3125 22.1875 C30.66636508 23.87528666 30.02117238 25.56343434 29.37695312 27.25195312 C21.05557813 48.94442187 21.05557813 48.94442187 19 51 C17.19187276 51.15091913 15.37669383 51.22169008 13.5625 51.25 C12.57378906 51.27578125 11.58507812 51.3015625 10.56640625 51.328125 C9.71949219 51.21984375 8.87257813 51.1115625 8 51 C7.34 50.01 6.68 49.02 6 48 C6.8189909 45.48037227 7.97603942 43.23480156 9.15234375 40.86328125 C11.34037983 33.47235752 7.90622045 26.56193208 5.0625 19.8125 C4.70220703 18.93658203 4.34191406 18.06066406 3.97070312 17.15820312 C1.90818348 12.14331933 1.90818348 12.14331933 -0.31640625 7.19921875 C-1 5 -1 5 0 0 Z " fill="#B2B2B2" transform="translate(327,352)"/>
<path d="M0 0 C3.44894018 2.67060792 4.5121118 4.4233735 5.63671875 8.7109375 C5.63671875 9.7628125 5.63671875 10.8146875 5.63671875 11.8984375 C3.66848989 13.86666636 0.28863166 13.56092131 -2.36328125 13.8984375 C-1.43515625 14.4759375 -0.50703125 15.0534375 0.44921875 15.6484375 C6.2171161 19.71989445 6.2171161 19.71989445 7.0234375 23.90625 C7.36982857 28.44782182 6.85124749 31.26075777 3.94921875 34.8359375 C0.05048473 38.75280516 -3.20070814 39.96405837 -8.67578125 40.2734375 C-13.59933672 40.14214269 -17.38818421 38.80813691 -21.36328125 35.8984375 C-23.92578125 32.9609375 -23.92578125 32.9609375 -25.36328125 29.8984375 C-25.03328125 28.2484375 -24.70328125 26.5984375 -24.36328125 24.8984375 C-20.07328125 24.8984375 -15.78328125 24.8984375 -11.36328125 24.8984375 C-11.36328125 25.5584375 -11.36328125 26.2184375 -11.36328125 26.8984375 C-10.37328125 26.5684375 -9.38328125 26.2384375 -8.36328125 25.8984375 C-9.183125 25.59550781 -10.00296875 25.29257812 -10.84765625 24.98046875 C-11.9253125 24.56152344 -13.00296875 24.14257812 -14.11328125 23.7109375 C-15.180625 23.30488281 -16.24796875 22.89882813 -17.34765625 22.48046875 C-20.74531857 20.69801637 -22.33053688 19.13433366 -24.36328125 15.8984375 C-25.26710812 11.74225724 -24.77754484 7.95711112 -23.23828125 4.0234375 C-17.7012466 -2.25186844 -7.54542588 -3.51704149 0 0 Z " fill="#B2B2B0" transform="translate(389.36328125,352.1015625)"/>
<path d="M0 0 C4.1663761 1.46188635 6.95031663 3.01450455 9 7 C9.1875 10.25 9.1875 10.25 9 13 C6.36 13.66 3.72 14.32 1 15 C1.9075 15.350625 2.815 15.70125 3.75 16.0625 C7.72562177 18.43258221 9.58263996 20.59918456 11 25 C11.42868198 29.5183081 10.59974189 32.22890328 7.8125 35.8125 C2.71083112 39.78046468 -1.29827267 41.59080472 -7.7578125 41.3515625 C-12.67587162 40.58043825 -15.93853921 38.06146079 -19.4375 34.5625 C-21.17024948 31.72079085 -21.45361076 30.26599748 -21 27 C-20 26 -20 26 -17.27734375 25.90234375 C-16.17519531 25.91394531 -15.07304687 25.92554688 -13.9375 25.9375 C-12.28041016 25.95103516 -12.28041016 25.95103516 -10.58984375 25.96484375 C-9.73519531 25.97644531 -8.88054687 25.98804688 -8 26 C-8 26.66 -8 27.32 -8 28 C-7.01 27.67 -6.02 27.34 -5 27 C-5.81984375 26.62488281 -6.6396875 26.24976563 -7.484375 25.86328125 C-8.56203125 25.35152344 -9.6396875 24.83976562 -10.75 24.3125 C-11.81734375 23.81363281 -12.8846875 23.31476563 -13.984375 22.80078125 C-17.21960989 20.8688599 -18.94605159 19.13960685 -21 16 C-21.62214724 11.7227377 -21.30952891 9.59612975 -19.3125 5.75 C-13.82499505 -0.77568156 -8.06124056 -0.80830867 0 0 Z " fill="#B2B2B1" transform="translate(316,351)"/>
<path d="M0 0 C1.0374939 0.00303635 1.0374939 0.00303635 2.09594727 0.00613403 C2.80243408 0.00517731 3.5089209 0.00422058 4.23681641 0.00323486 C5.7331552 0.00255321 7.22949694 0.00440649 8.72583008 0.00857544 C11.02374884 0.01392396 13.32147213 0.00863003 15.61938477 0.00222778 C17.06990603 0.00288857 18.52042718 0.00416974 19.97094727 0.00613403 C20.66260986 0.0041098 21.35427246 0.00208557 22.06689453 0 C26.91849503 0.0239943 26.91849503 0.0239943 28.03344727 1.13894653 C28.13195897 2.97010536 28.16317356 4.80514587 28.15844727 6.63894653 C28.16231445 8.13941528 28.16231445 8.13941528 28.16625977 9.67019653 C28.03344727 12.13894653 28.03344727 12.13894653 27.03344727 13.13894653 C24.06344727 13.13894653 21.09344727 13.13894653 18.03344727 13.13894653 C18.03344727 25.34894653 18.03344727 37.55894653 18.03344727 50.13894653 C15.42424899 51.44354567 13.44402112 51.27160594 10.53344727 51.26394653 C9.55375977 51.26652466 8.57407227 51.26910278 7.56469727 51.27175903 C5.03344727 51.13894653 5.03344727 51.13894653 3.03344727 50.13894653 C3.03344727 37.92894653 3.03344727 25.71894653 3.03344727 13.13894653 C0.39344727 13.13894653 -2.24655273 13.13894653 -4.96655273 13.13894653 C-5.96655273 12.13894653 -5.96655273 12.13894653 -6.09936523 9.67019653 C-6.09678711 8.66988403 -6.09420898 7.66957153 -6.09155273 6.63894653 C-6.09413086 5.63863403 -6.09670898 4.63832153 -6.09936523 3.60769653 C-5.8629717 -0.78644205 -3.91404987 0.0193575 0 0 Z " fill="#B3B3B3" transform="translate(63.966552734375,339.8610534667969)"/>
<path d="M0 0 C5.60812551 2.58424139 8.87661545 6.27033139 11.91796875 11.62890625 C13.65529871 18.42028699 12.99215194 24.12695076 9.60546875 30.31640625 C5.43473226 36.17798186 1.76643544 38.59093849 -5.20703125 40.19140625 C-11.10721748 40.74525515 -16.13827304 38.64964974 -21.14453125 35.69140625 C-25.67011338 30.9144029 -28.66855824 25.94029856 -28.95703125 19.25390625 C-28.59433097 13.25540155 -26.92088113 8.60809517 -22.41796875 4.5234375 C-15.42374068 -0.83032617 -8.79990317 -2.51220727 0 0 Z M-3.39453125 3.31640625 C-3.58015625 4.40953125 -3.76578125 5.50265625 -3.95703125 6.62890625 C-5.39453125 10.31640625 -5.39453125 10.31640625 -8.89453125 12.06640625 C-10.62703125 12.68515625 -10.62703125 12.68515625 -12.39453125 13.31640625 C-13.05453125 14.30640625 -13.71453125 15.29640625 -14.39453125 16.31640625 C-10.76453125 18.62640625 -7.13453125 20.93640625 -3.39453125 23.31640625 C-3.23984375 21.73859375 -3.23984375 21.73859375 -3.08203125 20.12890625 C-2.40238004 16.35993137 -1.46172072 14.45853425 0.60546875 11.31640625 C1.30369492 9.66271268 1.9804548 7.99913611 2.60546875 6.31640625 C-0.20885754 4.26753416 -0.20885754 4.26753416 -3.39453125 3.31640625 Z M-23.39453125 15.31640625 C-24.81076161 16.51767963 -24.81076161 16.51767963 -24.70703125 20.00390625 C-24.65138138 24.43999609 -23.2657164 26.8869351 -20.39453125 30.31640625 C-18.28877482 32.14941534 -18.28877482 32.14941534 -16.39453125 33.31640625 C-16.20060924 27.78962892 -16.64658095 23.56025714 -18.39453125 18.31640625 C-19.03390625 18.19265625 -19.67328125 18.06890625 -20.33203125 17.94140625 C-21.01265625 17.73515625 -21.69328125 17.52890625 -22.39453125 17.31640625 C-22.72453125 16.65640625 -23.05453125 15.99640625 -23.39453125 15.31640625 Z M-5.58203125 26.06640625 C-6.18015625 27.13890625 -6.77828125 28.21140625 -7.39453125 29.31640625 C-8.29171875 30.39921875 -8.29171875 30.39921875 -9.20703125 31.50390625 C-9.79484375 32.40109375 -9.79484375 32.40109375 -10.39453125 33.31640625 C-10.06453125 34.30640625 -9.73453125 35.29640625 -9.39453125 36.31640625 C-7.76784645 36.03428748 -6.14320229 35.7403825 -4.51953125 35.44140625 C-3.16214844 35.19777344 -3.16214844 35.19777344 -1.77734375 34.94921875 C0.77052863 34.48595922 0.77052863 34.48595922 2.60546875 32.31640625 C2.84800688 30.10567648 2.84800688 30.10567648 2.73046875 27.69140625 C2.71242188 26.87414062 2.694375 26.056875 2.67578125 25.21484375 C2.65257812 24.58835937 2.629375 23.961875 2.60546875 23.31640625 C-1.63612069 22.73800769 -2.83122466 22.60824939 -5.58203125 26.06640625 Z " fill="#B3B3B2" transform="translate(280.39453125,351.68359375)"/>
<path d="M0 0 C0.66 0 1.32 0 2 0 C1.81824219 0.52207031 1.63648438 1.04414063 1.44921875 1.58203125 C-5.69196326 22.49287705 -7.13160781 41.2281009 2 62 C4.95765403 67.82190846 8.14101119 72.59301015 13 77 C13.58910156 77.65355469 14.17820313 78.30710937 14.78515625 78.98046875 C19.10901499 83.67609852 23.6646854 87.39747881 29.0625 90.75 C29.88113525 91.27835449 29.88113525 91.27835449 30.71630859 91.81738281 C37.82484185 96.03467777 44.73122649 97.41600828 53 100 C53.33 74.59 53.66 49.18 54 23 C65.88 23 77.76 23 90 23 C90 36.2 90 49.4 90 63 C95.61 63 101.22 63 107 63 C107 63.33 107 63.66 107 64 C101.06 64.33 95.12 64.66 89 65 C88.67 63.35 88.34 61.7 88 60 C87.71781616 59.07719238 87.71781616 59.07719238 87.42993164 58.13574219 C86.79908464 55.00192644 87.00340968 52.01867085 87.12109375 48.828125 C87.16419678 47.5793457 87.2072998 46.33056641 87.25170898 45.04394531 C87.31302002 43.46194336 87.37433105 41.87994141 87.4375 40.25 C87.623125 35.2175 87.80875 30.185 88 25 C72.655 25.495 72.655 25.495 57 26 C57.00523682 28.29702881 57.01047363 30.59405762 57.01586914 32.96069336 C57.03240555 40.53235636 57.04347143 48.10402013 57.05181217 55.67569637 C57.05704082 60.2684264 57.06413812 64.861138 57.07543945 69.45385742 C57.086269 73.88233688 57.09227698 78.31079856 57.09487724 82.73929024 C57.09673137 84.43265628 57.10035175 86.12602129 57.10573006 87.81937981 C57.1129414 90.18291232 57.1139909 92.54637045 57.11352539 94.90991211 C57.11712067 95.61697296 57.12071594 96.32403381 57.12442017 97.05252075 C57.11405216 101.88594784 57.11405216 101.88594784 56 103 C50.77795756 103.33985758 46.82833432 102.5481805 41.9375 100.75 C40.77089844 100.33234375 39.60429687 99.9146875 38.40234375 99.484375 C34.9463532 97.97659497 32.07396674 96.17115416 29 94 C26.41977409 92.42669152 23.82942485 90.90523603 21.1875 89.4375 C20.465625 88.963125 19.74375 88.48875 19 88 C19 87.34 19 86.68 19 86 C17.94619141 85.73316406 17.94619141 85.73316406 16.87109375 85.4609375 C12.77077567 83.37451714 10.72563621 80.30264412 8.0625 76.625 C7.27081421 75.54677979 7.27081421 75.54677979 6.46313477 74.44677734 C-5.52981451 57.77559588 -10.6034496 39.21966666 -7.50390625 18.71875 C-5.96315213 11.9638054 -3.37696064 6.03314708 0 0 Z " fill="#0A0807" transform="translate(173,202)"/>
<path d="M0 0 C0.3125 3.3125 0.3125 3.3125 0 7 C-2.5 8.9375 -2.5 8.9375 -5 10 C-4.34 10.66 -3.68 11.32 -3 12 C-2.195625 11.95875 -1.39125 11.9175 -0.5625 11.875 C0.283125 11.91625 1.12875 11.9575 2 12 C3.8125 14 3.8125 14 5 16 C4 17 4 17 0.4375 17.0625 C-0.696875 17.041875 -1.83125 17.02125 -3 17 C-3.495 18.485 -3.495 18.485 -4 20 C-7.941316 22.25218057 -10.65621014 22.01018369 -15 21 C-15 19.68 -15 18.36 -15 17 C-14.38125 17.7425 -14.38125 17.7425 -13.75 18.5 C-11.87797662 20.43386092 -11.87797662 20.43386092 -8 20 C-7.20643199 18.25328412 -7.20643199 18.25328412 -7 16 C-8.35400645 13.27018168 -8.35400645 13.27018168 -10 11 C-9.34 11 -8.68 11 -8 11 C-8 10.01 -8 9.02 -8 8 C-7.34 8 -6.68 8 -6 8 C-6 7.01 -6 6.02 -6 5 C-9.3 5.66 -12.6 6.32 -16 7 C-16.33 7.99 -16.66 8.98 -17 10 C-18.32 10 -19.64 10 -21 10 C-20.67 11.98 -20.34 13.96 -20 16 C-19.34 16 -18.68 16 -18 16 C-17.67 16.99 -17.34 17.98 -17 19 C-18.98 18.34 -20.96 17.68 -23 17 C-23 16.34 -23 15.68 -23 15 C-23.886875 14.896875 -24.77375 14.79375 -25.6875 14.6875 C-29 14 -29 14 -31.375 12.375 C-35.22242536 10.35968195 -37.73958672 11.32374392 -42 12 C-44.375 11.875 -44.375 11.875 -46 11 C-47.25 8.4375 -47.25 8.4375 -48 6 C-37.48112287 -3.56261557 -13.06000582 -4.97524031 0 0 Z " fill="#221F1C" transform="translate(269,152)"/>
<path d="M0 0 C0.19879872 4.01955718 0.34338441 8.0371892 0.43945312 12.06054688 C0.47951753 13.426614 0.53399241 14.79234156 0.60351562 16.15722656 C1.16547643 27.47908398 1.16547643 27.47908398 -1.71313477 31.2355957 C-5.11702594 33.84370127 -8.61446672 35.86710505 -13 36 C-14 35 -14 35 -14.11352539 32.95874023 C-14.10828857 32.08419189 -14.10305176 31.20964355 -14.09765625 30.30859375 C-14.09443359 29.36435547 -14.09121094 28.42011719 -14.08789062 27.44726562 C-14.07951172 26.45404297 -14.07113281 25.46082031 -14.0625 24.4375 C-14.05798828 23.44041016 -14.05347656 22.44332031 -14.04882812 21.41601562 C-14.03700023 18.94398513 -14.01906415 16.47198528 -14 14 C-17.3 13.67 -20.6 13.34 -24 13 C-24.33 13.66 -24.66 14.32 -25 15 C-24.67 13.68 -24.34 12.36 -24 11 C-23.01 11 -22.02 11 -21 11 C-20.67 10.34 -20.34 9.68 -20 9 C-19.67 8.67 -19.34 8.34 -19 8 C-18.63557767 6.33985384 -18.30027117 4.67293936 -18 3 C-19.65 3 -21.3 3 -23 3 C-20.1150158 0.1150158 -17.77197005 0.58792783 -13.75 0.375 C-12.44546875 0.30023438 -11.1409375 0.22546875 -9.796875 0.1484375 C-6.52467437 0.02051196 -3.27379581 -0.01099366 0 0 Z " fill="#211E1C" transform="translate(286,265)"/>
<path d="M0 0 C0 0.99 0 1.98 0 3 C-0.99 3.33 -1.98 3.66 -3 4 C-3 4.99 -3 5.98 -3 7 C-3 8.32 -3 9.64 -3 11 C-2.01 11.33 -1.02 11.66 0 12 C-0.66 12.33 -1.32 12.66 -2 13 C-2 13.66 -2 14.32 -2 15 C-3.8125 15.6875 -3.8125 15.6875 -6 16 C-7.75 14.5625 -7.75 14.5625 -9 13 C-9 13.66 -9 14.32 -9 15 C-4.76353233 16.0089034 -4.76353233 16.0089034 -0.625 15.0625 C-0.08875 14.711875 0.4475 14.36125 1 14 C1 14.99 1 15.98 1 17 C-2.58767439 19.39178293 -3.76234747 19.51290037 -8 19 C-10.86045347 17.74216503 -13.50059183 16.15165822 -16.1875 14.5625 C-25.03447307 9.6436171 -31.60094782 7.92289373 -41.6875 9.9375 C-61.07654231 15.48443018 -76.86155918 27.57455485 -87 45 C-87.66 44.34 -88.32 43.68 -89 43 C-88.06811119 41.3925672 -87.12925565 39.78917201 -86.1875 38.1875 C-85.66542969 37.29417969 -85.14335937 36.40085938 -84.60546875 35.48046875 C-83.20464689 33.31618194 -81.98198853 31.63446177 -80 30 C-79.34 30 -78.68 30 -78 30 C-77.938125 29.4225 -77.87625 28.845 -77.8125 28.25 C-76.64954686 25.02951439 -74.76910281 23.98653028 -72 22 C-71.4121875 21.55011719 -70.824375 21.10023438 -70.21875 20.63671875 C-65.3834507 17 -65.3834507 17 -62 17 C-61.79761719 16.38253906 -61.59523437 15.76507813 -61.38671875 15.12890625 C-59.38417559 12.05457943 -57.30736986 11.86651604 -53.8125 10.9375 C-50.14764002 9.92015089 -46.93336145 8.9678707 -43.5 7.3125 C-37.79400419 5.17275157 -30.74608981 3.74683579 -24.81640625 5.73046875 C-23.0625 6.75 -23.0625 6.75 -20 9 C-18.00757511 10.0150089 -16.00925805 11.01873444 -14 12 C-13.01 12.495 -13.01 12.495 -12 13 C-12 12.34 -12 11.68 -12 11 C-12.66 11 -13.32 11 -14 11 C-16 8 -16 8 -15.625 5.8125 C-15.41875 5.214375 -15.2125 4.61625 -15 4 C-13.68 4 -12.36 4 -11 4 C-10.67 3.34 -10.34 2.68 -10 2 C-6.54956883 0.84985628 -3.64717645 0 0 0 Z " fill="#0B0A0A" transform="translate(263,157)"/>
<path d="M0 0 C1.65 0 3.3 0 5 0 C5.19879872 4.01955718 5.34338441 8.0371892 5.43945312 12.06054688 C5.47951753 13.426614 5.53399241 14.79234156 5.60351562 16.15722656 C6.16547643 27.47908398 6.16547643 27.47908398 3.28686523 31.2355957 C-0.11702594 33.84370127 -3.61446672 35.86710505 -8 36 C-9 35 -9 35 -9.11352539 32.86694336 C-9.10828857 31.95050049 -9.10305176 31.03405762 -9.09765625 30.08984375 C-9.09443359 29.10048828 -9.09121094 28.11113281 -9.08789062 27.09179688 C-9.07951172 26.05087891 -9.07113281 25.00996094 -9.0625 23.9375 C-9.05798828 22.89271484 -9.05347656 21.84792969 -9.04882812 20.77148438 C-9.03699913 18.1809334 -9.02051689 15.59049441 -9 13 C-9.66 12.67 -10.32 12.34 -11 12 C-9.68 12 -8.36 12 -7 12 C-5.8517315 14.296537 -5.88438825 15.58313167 -5.90234375 18.1328125 C-5.90717773 19.34130859 -5.90717773 19.34130859 -5.91210938 20.57421875 C-5.92048828 21.41597656 -5.92886719 22.25773437 -5.9375 23.125 C-5.94201172 23.97449219 -5.94652344 24.82398438 -5.95117188 25.69921875 C-5.96297126 27.79950909 -5.98090694 29.8997633 -6 32 C-3.56282742 31.72965366 -3.56282742 31.72965366 -1 31 C1.09942537 27.85086195 1.40779747 25.73733807 1.77734375 22.03515625 C2 20 2 20 2.625 17.125 C3.07893763 13.34218641 2.65802491 9.93518679 2.15625 6.171875 C2 4 2 4 3 2 C2.01 1.34 1.02 0.68 0 0 Z " fill="#090908" transform="translate(281,265)"/>
<path d="M0 0 C0.33 1.65 0.66 3.3 1 5 C0.01 4.67 -0.98 4.34 -2 4 C-2 3.34 -2 2.68 -2 2 C-6.455 2.495 -6.455 2.495 -11 3 C-11.33 27.75 -11.66 52.5 -12 78 C-12.33 78 -12.66 78 -13 78 C-13 52.59 -13 27.18 -13 1 C-7.34968203 -0.88343932 -5.51445885 -1.10289177 0 0 Z " fill="#13100E" transform="translate(252,236)"/>
<path d="M0 0 C0.66 0 1.32 0 2 0 C1.81824219 0.52207031 1.63648438 1.04414063 1.44921875 1.58203125 C-3.50263719 16.0820812 -6.66690188 30.58715647 -6 46 C-6.33 46 -6.66 46 -7 46 C-9.34197959 29.31339541 -8.30566693 14.83858282 0 0 Z " fill="#0C0B09" transform="translate(173,202)"/>
<path d="M0 0 C1.98 0 3.96 0 6 0 C6 0.33 6 0.66 6 1 C4.35 1 2.7 1 1 1 C1 9.91 1 18.82 1 28 C-4 30 -4 30 -12 30 C-12 24.39 -12 18.78 -12 13 C-11.67 13 -11.34 13 -11 13 C-11 18.28 -11 23.56 -11 29 C-9.35 29 -7.7 29 -6 29 C-6 28.34 -6 27.68 -6 27 C-4.68 26.67 -3.36 26.34 -2 26 C-1.97494385 25.28344238 -1.9498877 24.56688477 -1.92407227 23.82861328 C-1.80830249 20.59388486 -1.68549031 17.35946159 -1.5625 14.125 C-1.52318359 12.99707031 -1.48386719 11.86914062 -1.44335938 10.70703125 C-1.40146484 9.63066406 -1.35957031 8.55429687 -1.31640625 7.4453125 C-1.27974854 6.45031738 -1.24309082 5.45532227 -1.20532227 4.43017578 C-1 2 -1 2 0 0 Z " fill="#050403" transform="translate(262,278)"/>
<path d="M0 0 C0 0.99 0 1.98 0 3 C-0.99 3.33 -1.98 3.66 -3 4 C-3 4.99 -3 5.98 -3 7 C-3 7.66 -3 8.32 -3 9 C-3.598125 8.773125 -4.19625 8.54625 -4.8125 8.3125 C-5.534375 8.209375 -6.25625 8.10625 -7 8 C-8.77190909 9.35444301 -8.77190909 9.35444301 -10 11 C-10 10.01 -10 9.02 -10 8 C-10.66 8 -11.32 8 -12 8 C-12 7.34 -12 6.68 -12 6 C-12.99 6 -13.98 6 -15 6 C-15.33 6.66 -15.66 7.32 -16 8 C-15.67 6.68 -15.34 5.36 -15 4 C-13.68 4 -12.36 4 -11 4 C-10.67 3.34 -10.34 2.68 -10 2 C-6.54956883 0.84985628 -3.64717645 0 0 0 Z " fill="#191717" transform="translate(263,157)"/>
<path d="M0 0 C3.625 0.3125 3.625 0.3125 5.5625 2.3125 C5.913125 2.9725 6.26375 3.6325 6.625 4.3125 C5.625 5.3125 5.625 5.3125 2.0625 5.375 C0.928125 5.354375 -0.20625 5.33375 -1.375 5.3125 C-1.705 6.3025 -2.035 7.2925 -2.375 8.3125 C-6.316316 10.56468057 -9.03121014 10.32268369 -13.375 9.3125 C-13.375 7.9925 -13.375 6.6725 -13.375 5.3125 C-12.9625 5.8075 -12.55 6.3025 -12.125 6.8125 C-10.25297662 8.74636092 -10.25297662 8.74636092 -6.375 8.3125 C-6.065625 7.178125 -5.75625 6.04375 -5.4375 4.875 C-4.09668393 0.37932259 -4.09668393 0.37932259 0 0 Z " fill="#202020" transform="translate(267.375,163.6875)"/>
<path d="M0 0 C-0.14695312 0.55429687 -0.29390625 1.10859375 -0.4453125 1.6796875 C-1.24086783 5.00757389 -1.75367995 8.38163895 -2.3046875 11.7578125 C-3 14 -3 14 -6 16 C-7.21977329 13.56045342 -7.20153813 11.84694151 -7.25 9.125 C-7.27578125 8.26132812 -7.3015625 7.39765625 -7.328125 6.5078125 C-6.66237252 1.41956143 -5.08857696 0 0 0 Z " fill="#BDBEBA" transform="translate(259,362)"/>
<path d="M0 0 C2.125 0.375 2.125 0.375 4 1 C4.33 2.32 4.66 3.64 5 5 C6.32 5.33 7.64 5.66 9 6 C8.25 8.9375 8.25 8.9375 7 12 C4.875 12.875 4.875 12.875 3 13 C2.67 12.01 2.34 11.02 2 10 C2.33 9.34 2.66 8.68 3 8 C3 6.68 3 5.36 3 4 C1.02 4.66 -0.96 5.32 -3 6 C-2.42655063 3.13275314 -2.1385485 2.1385485 0 0 Z " fill="#BEBEBD" transform="translate(268,351)"/>
<path d="M0 0 C5.64060589 0.40290042 8.03471123 2.21914326 12 6 C13.20272819 8.40545638 13.10071472 9.94996953 13.0625 12.625 C13.05347656 13.44226563 13.04445313 14.25953125 13.03515625 15.1015625 C13.02355469 15.72804688 13.01195312 16.35453125 13 17 C12.34 16.67 11.68 16.34 11 16 C10.896875 14.9275 10.79375 13.855 10.6875 12.75 C9.85325069 8.19954924 8.57598112 6.84453044 5 4 C2.33466965 2.680982 2.33466965 2.680982 0 2 C0 1.34 0 0.68 0 0 Z " fill="#A6A6A5" transform="translate(383,366)"/>
<path d="M0 0 C0.33 0 0.66 0 1 0 C1.1875 2.875 1.1875 2.875 1 6 C-2 8 -2 8 -6 8 C-6.33 7.01 -6.66 6.02 -7 5 C-6.34 5 -5.68 5 -5 5 C-5.33 4.01 -5.66 3.02 -6 2 C-3 2 -3 2 0 3 C0 2.01 0 1.02 0 0 Z " fill="#B3B3B3" transform="translate(248,383)"/>
<path d="M0 0 C1.32 0.66 2.64 1.32 4 2 C2.92598892 4.91517292 2.22189824 6.77810176 0 9 C0 8.34 0 7.68 0 7 C-0.66 7 -1.32 7 -2 7 C-2.33 6.01 -2.66 5.02 -3 4 C-1.5625 1.8125 -1.5625 1.8125 0 0 Z " fill="#B8B8B7" transform="translate(165,374)"/>
<path d="M0 0 C-2.5654594 2.5654594 -4.47686668 2.54046087 -8 3 C-8 3.66 -8 4.32 -8 5 C-9.98 5.99 -9.98 5.99 -12 7 C-12.33 6.01 -12.66 5.02 -13 4 C-8.70699742 -0.75296714 -6.19220493 -1.54805123 0 0 Z " fill="#A7A7A3" transform="translate(151,362)"/>
<path d="M0 0 C3.54243452 1.36591169 6.92627929 2.90931484 10.3125 4.625 C11.63701172 5.29402344 11.63701172 5.29402344 12.98828125 5.9765625 C13.65214844 6.31429688 14.31601563 6.65203125 15 7 C14.67 7.66 14.34 8.32 14 9 C8.61774638 7.45216236 4.06345609 6.06345609 0 2 C0 1.34 0 0.68 0 0 Z " fill="#040404" transform="translate(198,291)"/>
<path d="M0 0 C-0.33 0.66 -0.66 1.32 -1 2 C-7.93 2 -14.86 2 -22 2 C-19.21066566 -0.78933434 -16.43432082 -0.49105086 -12.6875 -0.6875 C-11.37136719 -0.77386719 -10.05523437 -0.86023438 -8.69921875 -0.94921875 C-5.56128978 -0.99229486 -3.01949877 -0.77677628 0 0 Z " fill="#191618" transform="translate(285,266)"/>
<path d="M0 0 C0.99 0 1.98 0 3 0 C2.74476126 1.62752231 2.47025506 3.25203196 2.1875 4.875 C2.03667969 5.77992188 1.88585937 6.68484375 1.73046875 7.6171875 C1 10 1 10 -2 12 C-2.28571429 3.42857143 -2.28571429 3.42857143 0 0 Z " fill="#0E0D0C" transform="translate(162,198)"/>
<path d="M0 0 C3 1 3 1 4 3 C4.99 3.33 5.98 3.66 7 4 C6.01 4.495 6.01 4.495 5 5 C5 5.66 5 6.32 5 7 C3.68 7.33 2.36 7.66 1 8 C0.34 6.68 -0.32 5.36 -1 4 C-0.34 3.34 0.32 2.68 1 2 C0.67 1.34 0.34 0.68 0 0 Z " fill="#0B0A0A" transform="translate(256,165)"/>
<path d="M0 0 C0.33 0.99 0.66 1.98 1 3 C-1 5 -1 5 -3.6015625 5.1953125 C-4.59929687 5.17210937 -5.59703125 5.14890625 -6.625 5.125 C-8.12933594 5.09792969 -8.12933594 5.09792969 -9.6640625 5.0703125 C-10.43492187 5.04710937 -11.20578125 5.02390625 -12 5 C-12 4.34 -12 3.68 -12 3 C-11.38511719 2.95101563 -10.77023437 2.90203125 -10.13671875 2.8515625 C-9.32847656 2.77679688 -8.52023437 2.70203125 -7.6875 2.625 C-6.88699219 2.55539062 -6.08648437 2.48578125 -5.26171875 2.4140625 C-2.72775559 2.10435574 -2.72775559 2.10435574 0 0 Z " fill="#A6A6A6" transform="translate(347,398)"/>
<path d="M0 0 C0.66 0 1.32 0 2 0 C2.66 0.66 3.32 1.32 4 2 C4.99 2 5.98 2 7 2 C7.33 3.32 7.66 4.64 8 6 C3.545 5.01 3.545 5.01 -1 4 C-1 1 -1 1 0 0 Z " fill="#B9B8B5" transform="translate(387,355)"/>
<path d="M0 0 C2.475 0.99 2.475 0.99 5 2 C5 2.66 5 3.32 5 4 C5.66 4.33 6.32 4.66 7 5 C3.7 4.67 0.4 4.34 -3 4 C-3.33 4.66 -3.66 5.32 -4 6 C-3.67 4.68 -3.34 3.36 -3 2 C-2.01 2 -1.02 2 0 2 C0 1.34 0 0.68 0 0 Z " fill="#191714" transform="translate(265,274)"/>
<path d="M0 0 C1.32 1.32 2.64 2.64 4 4 C3 5 3 5 -0.0625 5.0625 C-1.5165625 5.0315625 -1.5165625 5.0315625 -3 5 C-3 3.68 -3 2.36 -3 1 C-2.01 0.67 -1.02 0.34 0 0 Z " fill="#666666" transform="translate(270,164)"/>
<path d="M0 0 C2.31 0 4.62 0 7 0 C6.01 0.495 6.01 0.495 5 1 C3.86649466 3.01669827 3.86649466 3.01669827 3 5 C1.68 4.34 0.36 3.68 -1 3 C-0.67 2.01 -0.34 1.02 0 0 Z M-1 4 C-0.01 4.33 0.98 4.66 2 5 C1.01 5 0.02 5 -1 5 C-1 4.67 -1 4.34 -1 4 Z " fill="#1A1917" transform="translate(219,154)"/>
<path d="M0 0 C3 1 3 1 4.25 3.375 C5 6 5 6 4 9 C3.34 9 2.68 9 2 9 C1.34 6.03 0.68 3.06 0 0 Z " fill="#AAAAAA" transform="translate(121,360)"/>
<path d="M0 0 C1.0625 1.8125 1.0625 1.8125 2 4 C1.67 4.99 1.34 5.98 1 7 C0.01 7.33 -0.98 7.66 -2 8 C-2.33 7.01 -2.66 6.02 -3 5 C-1.5625 2.3125 -1.5625 2.3125 0 0 Z " fill="#A9A9A8" transform="translate(131,359)"/>
<path d="M0 0 C0.66 0.33 1.32 0.66 2 1 C2 2.65 2 4.3 2 6 C0.35 6 -1.3 6 -3 6 C-2.42655063 3.13275314 -2.1385485 2.1385485 0 0 Z " fill="#BDBDBC" transform="translate(283,360)"/>
<path d="M0 0 C0.66 0.66 1.32 1.32 2 2 C1.25 4.4375 1.25 4.4375 0 7 C-2.125 7.8125 -2.125 7.8125 -4 8 C-4.33 7.01 -4.66 6.02 -5 5 C-4.360625 4.731875 -3.72125 4.46375 -3.0625 4.1875 C-0.66868314 3.11332248 -0.66868314 3.11332248 0 0 Z " fill="#C7C7C5" transform="translate(275,356)"/>
<path d="M0 0 C0 0.99 0 1.98 0 3 C-0.66 3 -1.32 3 -2 3 C-2.2475 3.5775 -2.495 4.155 -2.75 4.75 C-4.16683317 7.3002997 -5.87627537 9.01785701 -8 11 C-7.34938905 9.32700041 -6.67966676 7.66140763 -6 6 C-5.71125 5.278125 -5.4225 4.55625 -5.125 3.8125 C-3.73918442 1.57979713 -2.40534558 0.96213823 0 0 Z " fill="#100E0C" transform="translate(181,174)"/>
<path d="M0 0 C0 3.78176921 -1.07555275 5.76967782 -3 9 C-5.1875 10.375 -5.1875 10.375 -7 11 C-5.5140084 6.40693504 -3.14985318 3.56430755 0 0 Z " fill="#020201" transform="translate(175,178)"/>
<path d="M0 0 C2.31 0.33 4.62 0.66 7 1 C6.67 2.32 6.34 3.64 6 5 C4.125 4.75 4.125 4.75 2 4 C0.75 1.9375 0.75 1.9375 0 0 Z M7 0 C9 1 9 1 9 1 Z " fill="#A9A9A9" transform="translate(152,363)"/>
<path d="M0 0 C4.875 4.75 4.875 4.75 6 7 C4.33388095 7.042721 2.66617115 7.04063832 1 7 C0 6 0 6 -0.0625 2.9375 C-0.041875 1.968125 -0.02125 0.99875 0 0 Z " fill="#ACACA9" transform="translate(58,346)"/>
<path d="M0 0 C0.99 0.33 1.98 0.66 3 1 C3 2.32 3 3.64 3 5 C1.35 5 -0.3 5 -2 5 C-1.34 3.35 -0.68 1.7 0 0 Z " fill="#3A3A3A" transform="translate(264,164)"/>
<path d="M0 0 C0.99 0.33 1.98 0.66 3 1 C2.67 2.65 2.34 4.3 2 6 C1.01 5.67 0.02 5.34 -1 5 C-1.33 4.01 -1.66 3.02 -2 2 C-1.34 2 -0.68 2 0 2 C0 1.34 0 0.68 0 0 Z " fill="#282627" transform="translate(261,161)"/>
<path d="M0 0 C0 0.99 0 1.98 0 3 C-0.61875 3.144375 -1.2375 3.28875 -1.875 3.4375 C-4.03258322 3.93152225 -4.03258322 3.93152225 -6 5 C-6.33 3.68 -6.66 2.36 -7 1 C-4.50935112 0.31292445 -2.62113708 0 0 0 Z " fill="#100F0F" transform="translate(263,157)"/>
<path d="M0 0 C1.98 0.99 1.98 0.99 4 2 C3.67 4.31 3.34 6.62 3 9 C2.34 8.67 1.68 8.34 1 8 C0.40644386 5.35139573 0.25790731 2.70802678 0 0 Z " fill="#070607" transform="translate(267,149)"/>
<path d="M0 0 C0.66 0 1.32 0 2 0 C1.125 6.75 1.125 6.75 0 9 C-0.66 9 -1.32 9 -2 9 C-1.34 6.03 -0.68 3.06 0 0 Z " fill="#A3A3A1" transform="translate(357,368)"/>
<path d="M0 0 C0.99 0.33 1.98 0.66 3 1 C3 1.66 3 2.32 3 3 C3.61875 3.28875 4.2375 3.5775 4.875 3.875 C7 5 7 5 9 7 C6 7 6 7 3.375 4.625 C1 2 1 2 0 0 Z " fill="#11100F" transform="translate(183,280)"/>
<path d="M0 0 C0.66 0.33 1.32 0.66 2 1 C0.68 2.32 -0.64 3.64 -2 5 C-2.99 4.67 -3.98 4.34 -5 4 C-5 3.34 -5 2.68 -5 2 C-2.625 0.9375 -2.625 0.9375 0 0 Z " fill="#AAAAAA" transform="translate(393,384)"/>
<path d="M0 0 C0.33 0 0.66 0 1 0 C1 1.98 1 3.96 1 6 C-0.98 6.99 -0.98 6.99 -3 8 C-2.67 6.35 -2.34 4.7 -2 3 C-1.34 3 -0.68 3 0 3 C0 2.01 0 1.02 0 0 Z " fill="#CFCFCF" transform="translate(248,383)"/>
<path d="M0 0 C1.32 0 2.64 0 4 0 C4 1.98 4 3.96 4 6 C3.01 6 2.02 6 1 6 C0.67 4.02 0.34 2.04 0 0 Z " fill="#A7A7A7" transform="translate(321,358)"/>
<path d="M0 0 C2.4375 0.25 2.4375 0.25 5 1 C5.66 1.99 6.32 2.98 7 4 C6.01 4.33 5.02 4.66 4 5 C3.54625 4.525625 3.0925 4.05125 2.625 3.5625 C1.06741796 1.90972192 1.06741796 1.90972192 -1 1 C-0.67 0.67 -0.34 0.34 0 0 Z " fill="#A8A8A7" transform="translate(154,352)"/>
<path d="M0 0 C0.33 0 0.66 0 1 0 C1 2.31 1 4.62 1 7 C2.98 7.495 2.98 7.495 5 8 C4.34 8 3.68 8 3 8 C3 8.66 3 9.32 3 10 C2.01 9.67 1.02 9.34 0 9 C0 6.03 0 3.06 0 0 Z " fill="#0D0C0D" transform="translate(273,290)"/>
</svg>
