<svg width="250" height="147" viewBox="0 0 250 147" fill="none" xmlns="http://www.w3.org/2000/svg">
<g clip-path="url(#clip0_15_469)">
<g opacity="0.33">
<path d="M139.138 27.5345C144.457 31.5573 147.476 37.6152 148.385 44.1326C148.407 45.1169 148.393 46.0987 148.385 47.0834C148.741 47.0797 148.741 47.0797 149.103 47.0759C151.571 47.0514 154.038 47.0347 156.505 47.0226C157.426 47.017 158.347 47.0095 159.267 46.9999C160.591 46.9865 161.915 46.9802 163.238 46.9753C163.65 46.9696 164.061 46.9639 164.485 46.958C164.87 46.9579 165.255 46.9578 165.652 46.9577C166.159 46.9541 166.159 46.9541 166.676 46.9503C168.229 47.1671 169.144 47.7765 170.123 48.9844C170.734 50.3606 170.883 51.7007 171.02 53.1825C171.052 53.4972 171.085 53.8118 171.119 54.1361C171.227 55.1822 171.328 56.2289 171.429 57.2756C171.504 58.0164 171.579 58.7571 171.655 59.4978C171.857 61.4809 172.053 63.4645 172.249 65.4482C172.451 67.4964 172.659 69.544 172.866 71.5917C173.194 74.8383 173.519 78.0852 173.843 81.3322C174.222 85.1444 174.608 88.956 175 92.767C175.039 93.1478 175.039 93.1478 175.079 93.5363C175.202 94.7361 175.325 95.9358 175.448 97.1356C175.735 99.9281 176.019 102.721 176.301 105.514C176.441 106.897 176.583 108.28 176.727 109.663C176.794 110.322 176.862 110.98 176.93 111.639C176.96 111.93 176.991 112.221 177.022 112.521C177.795 120.093 177.795 120.093 175.77 122.697C173.747 124.771 171.186 124.936 168.414 124.991C166.918 125.005 165.422 125 163.926 124.994C163.251 124.993 162.576 124.994 161.902 124.994C160.077 124.994 158.252 124.99 156.427 124.985C154.517 124.98 152.607 124.98 150.697 124.979C147.084 124.977 143.471 124.97 139.857 124.963C135.742 124.955 131.627 124.951 127.512 124.947C119.05 124.939 110.589 124.926 102.127 124.91C102.675 123.764 103.227 122.992 104.143 122.103C104.396 121.855 104.65 121.607 104.91 121.351C105.175 121.095 105.439 120.84 105.712 120.576C107.461 118.876 109.146 117.16 110.739 115.314C111.834 114.061 112.984 112.86 114.131 111.655C114.652 111.105 115.173 110.556 115.694 110.006C116.091 109.588 116.091 109.588 116.496 109.16C117.29 108.322 118.081 107.482 118.871 106.641C121.259 104.099 123.658 101.584 126.145 99.1382C127.104 98.1683 127.991 97.1483 128.879 96.114C129.555 95.3531 130.265 94.6402 130.992 93.9268C132.138 92.8001 133.201 91.6339 134.249 90.417C135.62 88.8733 137.046 87.3801 138.468 85.8827C138.686 85.6517 138.904 85.4206 139.129 85.1826C139.326 84.9754 139.523 84.7682 139.725 84.5547C140.318 83.9101 140.318 83.9101 140.984 82.8615C141.228 82.8615 141.472 82.8615 141.724 82.8615C141.726 83.0792 141.728 83.2969 141.731 83.5212C141.754 85.789 141.785 88.0567 141.821 90.3244C141.833 91.1705 141.844 92.0166 141.852 92.8627C141.865 94.0796 141.884 95.2963 141.905 96.5131C141.908 97.0797 141.908 97.0797 141.912 97.6578C141.953 100.217 141.953 100.217 143.204 102.41C144.626 103.655 146.032 103.706 147.852 103.647C149.205 103.452 149.981 102.959 150.976 102.041C151.636 100.714 151.808 99.6446 151.806 98.1716C151.807 97.7726 151.808 97.3736 151.809 96.9625C151.806 96.5323 151.804 96.102 151.801 95.6587C151.801 95.2086 151.801 94.7586 151.801 94.2949C151.8 93.0844 151.796 91.874 151.789 90.6635C151.785 89.9164 151.783 89.1693 151.78 88.4222C151.763 82.7725 151.741 77.1215 151.6 71.4733C151.592 71.0283 151.584 70.5834 151.575 70.1249C151.562 69.7264 151.549 69.3279 151.535 68.9173C151.525 68.5865 151.516 68.2556 151.506 67.9147C151.304 66.7633 150.953 66.0811 150.236 65.1568C148.846 64.4574 147.705 64.3274 146.16 64.3295C145.718 64.3284 145.276 64.3273 144.821 64.3261C144.105 64.3301 144.105 64.3301 143.375 64.3341C142.87 64.3346 142.366 64.3347 141.862 64.3346C140.799 64.3352 139.737 64.3383 138.675 64.3432C137.347 64.3494 136.018 64.3509 134.689 64.3507C131.608 64.3507 128.527 64.3705 125.447 64.4098C124.949 64.416 124.452 64.4218 123.955 64.4271C122.319 64.4448 120.684 64.4766 119.049 64.5157C118.635 64.5206 118.222 64.5255 117.796 64.5306C115.554 64.5907 115.554 64.5907 113.543 65.5024C112.256 66.9333 111.944 67.9701 112.003 69.9417C112.2 71.2157 112.755 71.9504 113.599 72.9026C115.581 74.1969 117.389 74.1826 119.679 74.1979C120.045 74.2045 120.412 74.2111 120.79 74.218C121.955 74.2379 123.119 74.2504 124.285 74.2627C125.077 74.275 125.869 74.2877 126.661 74.3009C128.598 74.3322 130.535 74.3574 132.472 74.378C132.124 74.7863 131.776 75.1941 131.427 75.6018C131.233 75.8289 131.039 76.0561 130.839 76.2902C129.997 77.2501 129.104 78.1387 128.193 79.0347C127.857 79.3665 127.521 79.6984 127.174 80.0404C126.847 80.3627 126.519 80.6851 126.181 81.0172C124.681 82.51 123.185 84.006 121.688 85.5016C119.048 88.1389 116.407 90.7753 113.765 93.4112C112.17 95.0036 110.574 96.5963 108.98 98.1898C107.433 99.7353 105.886 101.28 104.337 102.824C103.75 103.41 103.162 103.997 102.575 104.584C101.752 105.407 100.927 106.23 100.103 107.052C99.8635 107.291 99.6244 107.531 99.3781 107.778C97.9665 109.182 96.5121 110.514 94.9996 111.81C94.1451 112.552 93.3462 113.34 92.5513 114.144C92.0848 114.614 92.0848 114.614 91.6088 115.092C91.1365 115.57 91.1365 115.57 90.6547 116.058C82.5002 124.308 82.5002 124.308 79.7869 124.652C77.8285 124.661 76.406 124.58 74.7418 123.435C73.2381 121.853 72.5333 120.529 72.5 118.334C72.5307 117.777 72.5666 117.22 72.6067 116.663C72.6259 116.357 72.6452 116.051 72.665 115.736C72.8983 112.257 73.2595 108.79 73.6252 105.322C74.2629 99.2625 74.8536 93.2009 75.3519 87.128C75.5937 84.1968 75.8483 81.2667 76.1028 78.3366C76.1881 77.3521 76.2729 76.3675 76.3572 75.3829C76.636 72.1338 76.9228 68.8856 77.2239 65.6384C77.3619 64.1484 77.4965 62.6582 77.6226 61.1671C77.7421 59.7564 77.8711 58.3469 78.007 56.9377C78.0558 56.4145 78.1012 55.8909 78.1431 55.3671C78.5329 50.5366 78.5329 50.5366 80.4284 48.6379C81.7644 47.6479 82.7475 47.3602 84.4138 47.3685C84.9804 47.3685 84.9804 47.3685 85.5585 47.3686C85.9637 47.3724 86.3689 47.3762 86.7863 47.3802C87.4116 47.3817 87.4116 47.3817 88.0494 47.3833C89.3805 47.3875 90.7114 47.3967 92.0425 47.4061C92.945 47.4098 93.8475 47.4132 94.75 47.4162C96.9623 47.4243 99.1744 47.4367 101.387 47.4522C101.377 46.773 101.377 46.773 101.367 46.0801C101.371 39.7645 104.476 33.6611 108.854 29.2534C117.398 21.2213 129.618 21.2337 139.138 27.5345Z" fill="#EF3F21"/>
</g>
<path d="M136.964 32.21C140.886 35.4283 143.363 39.7706 144 44.7484C144 45.4915 144 46.2345 144 47C131.46 47 118.92 47 106 47C106 41.2616 107.925 36.9381 111.833 32.692C118.803 26.1829 129.66 26.8505 136.964 32.21Z" fill="#FEFCF4"/>
</g>
<defs>
<clipPath id="clip0_15_469">
<rect width="250" height="147" fill="white"/>
</clipPath>
</defs>
</svg>
