<svg width="250" height="155" viewBox="0 0 250 155" fill="none" xmlns="http://www.w3.org/2000/svg">
<g clip-path="url(#clip0_167_95)">
<g opacity="0.33">
<path d="M125.427 23C137.577 23.0002 147.427 32.85 147.427 45C147.427 45.0882 147.424 45.1767 147.423 45.2646L166.368 45.0605C169.504 45.0267 172.137 47.4143 172.41 50.5391L175.371 84.5L178.811 116.731C179.154 119.948 176.886 122.858 173.682 123.31L172.328 123.5H125.409L78.9429 123.062C75.4348 123.028 72.7031 120.005 73.025 116.512L79.0298 51.3906C79.3122 48.3283 81.8639 45.9748 84.939 45.9414L103.44 45.7412C103.432 45.4952 103.427 45.2479 103.427 45C103.427 32.8499 113.277 23 125.427 23ZM125.427 27C115.486 27 107.427 35.059 107.427 45C107.427 45.2334 107.433 45.466 107.442 45.6973L143.423 45.3086C143.425 45.206 143.427 45.103 143.427 45C143.427 35.0592 135.368 27.0002 125.427 27Z" fill="#F16A52"/>
<path d="M151.678 62.8029C154.272 62.8316 156.382 64.8314 156.603 67.3631C156.624 67.5562 156.635 67.7526 156.634 67.9514L156.369 98.4298C156.345 101.201 154.082 103.43 151.31 103.412C148.535 103.393 146.3 101.127 146.319 98.3517L146.427 82.4291L106.028 123.165C105.569 123.628 104.938 123.881 104.286 123.864L103.265 123.838L97.1332 123.68L86.4662 123.625C85.7179 123.625 85.3444 122.718 85.8764 122.192L135.992 72.6313L121.57 72.4729C118.809 72.4425 116.595 70.1795 116.625 67.4183C116.656 64.6572 118.919 62.4431 121.68 62.4735L151.678 62.8029Z" fill="white" fill-opacity="0.88"/>
</g>
</g>
<defs>
<clipPath id="clip0_167_95">
<rect width="250" height="155" fill="white"/>
</clipPath>
</defs>
</svg>
