<?xml version="1.0" encoding="UTF-8"?>
<svg version="1.1" xmlns="http://www.w3.org/2000/svg" width="1024" height="1024">
<path d="M0 0 C337.92 0 675.84 0 1024 0 C1024 337.92 1024 675.84 1024 1024 C686.08 1024 348.16 1024 0 1024 C0 686.08 0 348.16 0 0 Z " fill="#FEFEF5" transform="translate(0,0)"/>
<path d="M0 0 C14.37465281 10.90629167 22.5324859 27.33025299 24.98828125 45 C25.04825887 47.66852612 25.00946796 50.33030243 24.98828125 53 C25.9488166 52.99000725 25.9488166 52.99000725 26.92875671 52.97981262 C33.59592669 52.91342208 40.26300269 52.8681838 46.93041992 52.83520508 C49.41841445 52.82012239 51.90638242 52.79965346 54.39428711 52.77368164 C57.97125813 52.73727663 61.54787747 52.72026816 65.125 52.70703125 C66.2366301 52.69154739 67.34826019 52.67606354 68.49357605 52.66011047 C69.5342775 52.65988388 70.57497894 52.65965729 71.6472168 52.65942383 C73.01622383 52.64943108 73.01622383 52.64943108 74.41288757 52.63923645 C78.60947484 53.22709831 81.08312104 54.87932848 83.72807312 58.15402222 C85.38018251 61.8850461 85.78186154 65.5183744 86.15161133 69.53564453 C86.24006065 70.38881854 86.32850998 71.24199255 86.41963959 72.12102032 C86.71071455 74.95723488 86.98424716 77.79485985 87.2578125 80.6328125 C87.46044321 82.64111565 87.6641755 84.64930793 87.86894226 86.65739441 C88.41419524 92.03386733 88.94452857 97.41171626 89.47207642 102.78995132 C90.01937675 108.34287625 90.58054359 113.89439715 91.140625 119.44604492 C92.02712685 128.24803127 92.90642969 137.05070378 93.77978516 145.85400391 C94.80551992 156.18952605 95.84838968 166.52318862 96.90625 176.85546875 C97.01189239 177.88791718 97.01189239 177.88791718 97.11966896 178.94122314 C97.45250965 182.19396827 97.78556195 185.44669167 98.1187439 188.69940186 C98.89307726 196.27033454 99.65993129 203.84202117 100.42333984 211.4140625 C100.80154178 215.16458539 101.18523968 218.91449079 101.57275391 222.6640625 C101.755544 224.44921771 101.93832444 226.23437391 102.12109375 228.01953125 C102.20379517 228.80894608 102.28649658 229.5983609 102.3717041 230.41169739 C104.46084517 250.93927982 104.46084517 250.93927982 98.98828125 258 C93.5203774 263.62412968 86.60179146 264.0700624 79.10934627 264.21966004 C75.06735629 264.25750641 71.0261994 264.24459805 66.98413086 264.22705078 C65.16016649 264.22648602 63.33620166 264.22680449 61.51223755 264.22793579 C56.58106936 264.22850777 51.64999919 264.21677855 46.71885371 264.20278788 C41.55789997 264.19025467 36.39694379 264.18910798 31.23597717 264.18673706 C21.47207313 264.1805299 11.70821407 264.16412942 1.9443298 264.14403808 C-9.17537084 264.1216553 -20.29507366 264.11067967 -31.41479123 264.10064721 C-54.28045864 264.07976251 -77.14608617 264.0446014 -100.01171875 264 C-98.52903298 260.89335333 -97.03873857 258.79909693 -94.5625 256.390625 C-93.87865234 255.71773437 -93.19480469 255.04484375 -92.49023438 254.3515625 C-91.77544922 253.65804688 -91.06066406 252.96453125 -90.32421875 252.25 C-85.59788844 247.64193746 -81.04435649 242.9879265 -76.73852539 237.98291016 C-73.78030999 234.58596042 -70.67242725 231.33136264 -67.57421875 228.0625 C-66.16656841 226.57300952 -64.75901933 225.08342334 -63.3515625 223.59375 C-62.27817627 222.45873047 -62.27817627 222.45873047 -61.18310547 221.30078125 C-59.03855316 219.0284335 -56.90090606 216.74980933 -54.765625 214.46875 C-48.31265559 207.57962589 -41.82907701 200.75886266 -35.109375 194.12890625 C-32.5182342 191.49916373 -30.1214776 188.73394345 -27.72265625 185.9296875 C-25.89372012 183.86691479 -23.97591417 181.9340928 -22.01171875 180 C-18.91576863 176.94525074 -16.0416041 173.78352022 -13.2109375 170.484375 C-9.50599253 166.29903752 -5.65179222 162.25084883 -1.81005859 158.19116211 C-1.22047363 157.5647583 -0.63088867 156.93835449 -0.0234375 156.29296875 C0.50805908 155.7311792 1.03955566 155.16938965 1.5871582 154.59057617 C3.18953015 152.84302434 3.18953015 152.84302434 4.98828125 150 C5.64828125 150 6.30828125 150 6.98828125 150 C6.99414749 150.5902446 7.00001373 151.1804892 7.00605774 151.78862 C7.07003793 157.93711264 7.15446965 164.0850841 7.25073242 170.2331543 C7.28396759 172.52702967 7.31200389 174.82098654 7.3347168 177.11499023 C7.36828799 180.41425273 7.4206066 183.7127693 7.4765625 187.01171875 C7.48614738 188.54792122 7.48614738 188.54792122 7.4959259 190.11515808 C7.60818605 197.05491243 7.60818605 197.05491243 10.98828125 203 C14.82951318 206.37562806 18.62835153 206.51282556 23.546875 206.3515625 C27.20352448 205.82500498 29.30024083 204.48643739 31.98828125 202 C33.77275984 198.40107124 34.23723234 195.50161697 34.23120117 191.50830078 C34.23422241 190.42653564 34.23724365 189.34477051 34.24035645 188.23022461 C34.23322632 187.06370361 34.22609619 185.89718262 34.21875 184.6953125 C34.21879028 183.47513428 34.21883057 182.25495605 34.21887207 180.99780273 C34.21606178 177.71600623 34.20398873 174.43443149 34.18612289 171.15268707 C34.17579228 169.12716282 34.16861621 167.10165193 34.1625061 165.07611084 C34.11529813 149.75888027 34.05692833 134.43808778 33.67578125 119.125 C33.65346436 117.91859863 33.63114746 116.71219727 33.6081543 115.46923828 C33.57246338 114.38884277 33.53677246 113.30844727 33.5 112.1953125 C33.47381592 111.29828613 33.44763184 110.40125977 33.4206543 109.47705078 C32.87574885 106.35530566 31.92789659 104.50583515 29.98828125 102 C26.23227164 100.10370215 23.15110425 99.75138091 18.97412109 99.75708008 C17.7803183 99.75400345 16.5865155 99.75092682 15.35653687 99.74775696 C13.4224144 99.75853523 13.4224144 99.75853523 11.44921875 99.76953125 C10.08615157 99.77072734 8.72308355 99.77117531 7.36001587 99.7709198 C4.49012129 99.77248464 1.6203514 99.78075314 -1.24951172 99.79418945 C-4.84051094 99.81082921 -8.43137082 99.81488726 -12.02240372 99.81442451 C-20.34794569 99.81453738 -28.67197968 99.86820812 -36.99684143 99.97467804 C-38.34024093 99.99156121 -39.68365635 100.00722155 -41.02708435 100.02165985 C-45.44748162 100.06969775 -49.86579551 100.15587538 -54.28515625 100.26171875 C-55.40225983 100.27507767 -56.5193634 100.28843658 -57.6703186 100.30220032 C-63.72945623 100.46512087 -63.72945623 100.46512087 -69.16259766 102.93676758 C-72.63956491 106.81633588 -73.48348881 109.62715484 -73.32421875 114.97265625 C-72.79182402 118.42656706 -71.29309298 120.41844495 -69.01171875 123 C-63.6566991 126.50909316 -58.77129607 126.47023469 -52.58203125 126.51171875 C-51.59169891 126.52966995 -50.60136658 126.54762115 -49.58102417 126.56611633 C-46.43296504 126.62008901 -43.28505642 126.65407356 -40.13671875 126.6875 C-37.99607287 126.72068454 -35.85544681 126.75517525 -33.71484375 126.79101562 C-28.48060374 126.87580778 -23.24634394 126.94421265 -18.01171875 127 C-18.95186328 128.10696058 -19.89347787 129.21267272 -20.83569336 130.31787109 C-21.35989365 130.93375092 -21.88409393 131.54963074 -22.42417908 132.18417358 C-24.69954276 134.78673247 -27.11351922 137.19580302 -29.57421875 139.625 C-30.48300781 140.52476562 -31.39179688 141.42453125 -32.328125 142.3515625 C-33.21371094 143.22554687 -34.09929687 144.09953125 -35.01171875 145 C-39.06455805 149.04702085 -43.10851077 153.10291518 -47.15356445 157.15771484 C-54.28749021 164.30801341 -61.42398988 171.45573747 -68.56193256 178.60202599 C-72.87391732 182.91923144 -77.18496152 187.2373676 -81.49389648 191.55761719 C-85.6730901 195.74771077 -89.85475316 199.93532541 -94.03810692 204.12126541 C-95.62609531 205.71109303 -97.21320736 207.3017965 -98.79940224 208.89341354 C-101.02448285 211.12580083 -103.25272218 213.35499041 -105.48168945 215.58349609 C-106.12767593 216.23307785 -106.77366241 216.88265961 -107.43922424 217.55192566 C-111.2536087 221.35782555 -115.18377219 224.97151448 -119.27086163 228.48343849 C-121.57984766 230.49493001 -123.73866049 232.63099446 -125.88671875 234.8125 C-127.14742187 236.08480469 -127.14742187 236.08480469 -128.43359375 237.3828125 C-129.70976562 238.67832031 -129.70976562 238.67832031 -131.01171875 240 C-153.0470228 262.3691723 -153.0470228 262.3691723 -160.37890625 263.30078125 C-165.67082054 263.32550982 -169.51486187 263.1049726 -174.01171875 260 C-178.07506783 255.71090931 -179.97963838 252.12190667 -180.06958008 246.17285156 C-179.98672009 244.66132475 -179.88965984 243.1505344 -179.78125 241.640625 C-179.72926956 240.81129456 -179.67728912 239.98196411 -179.62373352 239.12750244 C-178.99342273 229.69552147 -178.01729541 220.29511142 -177.02911377 210.89517212 C-175.30583868 194.46571291 -173.70954575 178.0318648 -172.36325073 161.56726074 C-171.70975768 153.62040495 -171.02170603 145.67643654 -170.33398438 137.73248291 C-170.10352281 135.0632753 -169.87432263 132.39397951 -169.64648438 129.72454834 C-168.89330372 120.91567409 -168.11827751 112.10921181 -167.30459404 103.30570316 C-166.93173849 99.2659407 -166.56803107 95.22585171 -166.22711182 91.18325806 C-165.90420639 87.35865836 -165.55579428 83.53720304 -165.18861389 79.71660805 C-165.05669115 78.29808812 -164.93382346 76.87869231 -164.82072449 75.45854759 C-163.76745659 62.36214552 -163.76745659 62.36214552 -158.64535522 57.21459961 C-155.03521479 54.53048032 -152.37877469 53.75065814 -147.87597656 53.77294922 C-146.34484222 53.77317581 -146.34484222 53.77317581 -144.78277588 53.77340698 C-143.68785828 53.78372955 -142.59294067 53.79405212 -141.46484375 53.8046875 C-139.775336 53.80893234 -139.775336 53.80893234 -138.05169678 53.81326294 C-134.45492929 53.82445626 -130.85841096 53.84955963 -127.26171875 53.875 C-124.82292026 53.88503088 -122.38411787 53.89415654 -119.9453125 53.90234375 C-113.96736293 53.92439284 -107.98955864 53.95786216 -102.01171875 54 C-102.03794312 52.1586145 -102.03794312 52.1586145 -102.06469727 50.2800293 C-102.05363271 33.15751034 -93.66335424 16.61009403 -81.83203125 4.66015625 C-58.74474228 -17.11608169 -25.72399286 -17.08259967 0 0 Z " fill="#EF3F21" transform="translate(367.01171875,339)"/>
<path d="M0 0 C5.28 0 10.56 0 16 0 C16.33 9.24 16.66 18.48 17 28 C19.97 25.525 19.97 25.525 23 23 C28.78043473 20.24115615 35.18826884 20.06124307 41.36328125 21.58203125 C48.51813357 24.28827073 53.29547287 29.46220281 57.1640625 35.953125 C61.06954579 45.22408533 60.45038271 58.43208152 57 67.6875 C53.68540281 74.42873709 48.95175133 78.94575341 42.0625 81.9375 C35.46709264 84.01550506 29.16120731 83.64756224 22.796875 81 C19.96554171 79.42430147 18.11267177 77.44277674 16 75 C15.67 77.31 15.34 79.62 15 82 C10.05 82 5.1 82 0 82 C0 54.94 0 27.88 0 0 Z " fill="#131314" transform="translate(723,414)"/>
<path d="M0 0 C3.24688182 1.82386572 5.43475185 4.29475989 7.8984375 7.06640625 C8.5584375 6.13828125 9.2184375 5.21015625 9.8984375 4.25390625 C13.5147225 -0.04297171 17.64050621 -1.5235045 23.1328125 -2.21484375 C29.25746117 -2.46827749 34.94852166 -1.52376375 39.66015625 2.61328125 C45.73448007 9.2612095 46.18772495 15.81693372 46.09375 24.49609375 C46.0909201 25.48642609 46.08809021 26.47675842 46.08517456 27.49710083 C46.0740222 30.64532801 46.04892657 33.79326574 46.0234375 36.94140625 C46.01340132 39.08202713 46.00427658 41.22265249 45.99609375 43.36328125 C45.97409903 48.59776697 45.93960313 53.83203761 45.8984375 59.06640625 C40.6184375 59.06640625 35.3384375 59.06640625 29.8984375 59.06640625 C29.8687085 57.28810425 29.8687085 57.28810425 29.83837891 55.47387695 C29.76217961 51.06611258 29.67348427 46.65867215 29.58105469 42.2512207 C29.54282411 40.34536139 29.50796095 38.43943138 29.4765625 36.53344727 C29.43078328 33.79027072 29.3728102 31.04757837 29.3125 28.3046875 C29.30094879 27.45554276 29.28939758 26.60639801 29.27749634 25.73152161 C29.17112381 21.44629367 28.97472542 17.92927842 26.8984375 14.06640625 C24.27778445 11.93105932 22.81782165 12.06928539 19.3984375 12.19140625 C15.58870969 13.1438382 14.25215506 13.9884679 11.8984375 17.06640625 C10.58923247 20.99402135 10.66380882 24.79211256 10.58203125 28.890625 C10.56125015 29.75202591 10.54046906 30.61342682 10.51905823 31.50093079 C10.45368841 34.25184169 10.39473618 37.00284781 10.3359375 39.75390625 C10.29274033 41.61915046 10.24912565 43.48438505 10.20507812 45.34960938 C10.09801987 49.92177749 9.99671696 54.49404135 9.8984375 59.06640625 C4.6184375 59.06640625 -0.6615625 59.06640625 -6.1015625 59.06640625 C-6.11614502 57.85057861 -6.13072754 56.63475098 -6.14575195 55.38208008 C-6.20381348 50.86241547 -6.2810461 46.34324498 -6.36401367 41.82397461 C-6.39722604 39.86962923 -6.42526945 37.91518878 -6.44799805 35.96069336 C-6.48161183 33.14786343 -6.53393104 30.33590178 -6.58984375 27.5234375 C-6.59623367 26.65241898 -6.6026236 25.78140045 -6.60920715 24.88398743 C-6.72330186 20.15473131 -7.00884349 16.89379414 -10.1015625 13.06640625 C-12.4975251 11.86842495 -13.8186095 11.95671328 -16.4765625 12.12890625 C-17.63285156 12.17724609 -17.63285156 12.17724609 -18.8125 12.2265625 C-21.60144362 13.24980973 -22.68289262 14.70967348 -24.25149536 17.18315125 C-25.87669009 20.78363873 -25.70527217 24.51068299 -25.7109375 28.40234375 C-25.72747375 29.28169586 -25.74401001 30.16104797 -25.76104736 31.06704712 C-25.80939164 33.85857217 -25.83086785 36.64955301 -25.8515625 39.44140625 C-25.87973358 41.34117301 -25.9096626 43.24091457 -25.94140625 45.140625 C-26.01514684 49.78250725 -26.06480423 54.4240898 -26.1015625 59.06640625 C-31.3815625 59.06640625 -36.6615625 59.06640625 -42.1015625 59.06640625 C-42.1015625 39.26640625 -42.1015625 19.46640625 -42.1015625 -0.93359375 C-37.1515625 -0.93359375 -32.2015625 -0.93359375 -27.1015625 -0.93359375 C-26.7715625 1.37640625 -26.4415625 3.68640625 -26.1015625 6.06640625 C-25.4209375 5.30328125 -24.7403125 4.54015625 -24.0390625 3.75390625 C-16.88172213 -2.79429877 -8.71883343 -3.56679549 0 0 Z " fill="#151516" transform="translate(667.1015625,436.93359375)"/>
<path d="M0 0 C6.45830245 5.04554879 9.91329108 12.97490467 11.1875 20.875 C11.93378277 30.12890638 9.38027134 38.27254142 3.98828125 45.83203125 C-1.46625029 52.02014404 -8.39148082 55.38218007 -16.5625 56.125 C-26.22981144 56.51958414 -33.22641252 54.30808718 -40.6875 48.125 C-46.5136333 42.60767235 -49.48389416 36.50241671 -50.05078125 28.51953125 C-50.26548339 17.43412076 -48.55709186 9.97632942 -40.87890625 1.66796875 C-28.72005697 -8.88195908 -13.21939193 -8.18204655 0 0 Z " fill="#131313" transform="translate(607.8125,441.125)"/>
<path d="M0 0 C4.05113551 3.60603869 7.62319709 7.64576645 9 13 C9 13.99 9 14.98 9 16 C6.87607494 16.6700834 4.75082476 17.33596797 2.625 18 C1.44164062 18.37125 0.25828125 18.7425 -0.9609375 19.125 C-4 20 -4 20 -6 20 C-7.33346412 18.04969533 -8.43891316 16.00995631 -9.5859375 13.9453125 C-11.25058943 11.65526647 -12.33647512 10.92769089 -15 10 C-17.6490303 9.68461103 -17.6490303 9.68461103 -20.4375 9.75 C-21.36433594 9.74484375 -22.29117188 9.7396875 -23.24609375 9.734375 C-26.19242239 10.01855989 -28.3472846 10.70373419 -31 12 C-32.93242406 14.4594488 -33 15.85735104 -33 19 C-31.69013113 22.92960661 -29.55581058 24.20455248 -26 26 C-21.48496105 27.66472741 -16.85386258 28.94170608 -12.23046875 30.26757812 C-3.48955697 32.8874536 3.82999976 36.24499964 9 44 C11.43597781 50.64357585 11.7270337 57.24127126 9.28125 63.98046875 C5.6236768 71.12219573 -0.59426885 75.39427978 -8 78 C-19.37062582 80.77001617 -31.09826439 79.5537281 -41.25 73.75 C-45.73107686 70.70504919 -50.15508802 67.18940285 -51.58984375 61.7734375 C-51.875 59.5625 -51.875 59.5625 -52 56 C-49.87607494 55.3299166 -47.75082476 54.66403203 -45.625 54 C-44.44164062 53.62875 -43.25828125 53.2575 -42.0390625 52.875 C-39 52 -39 52 -37 52 C-36.63648438 52.81404297 -36.63648438 52.81404297 -36.265625 53.64453125 C-35.93046875 54.35996094 -35.5953125 55.07539063 -35.25 55.8125 C-34.76273437 56.87404297 -34.76273437 56.87404297 -34.265625 57.95703125 C-32.2555598 61.20167354 -30.10377949 62.64864162 -26.484375 63.80078125 C-20.32265234 64.95390363 -15.89156858 65.3145448 -10 63 C-7.38028695 60.70775108 -7.06471849 59.44378396 -6.5625 56 C-6.77803777 52.97928892 -6.77803777 52.97928892 -8.5 50.8125 C-12.85632854 47.65416181 -17.69160839 46.38632551 -22.796875 44.87890625 C-33.09560712 41.82671233 -41.55243752 39.10244114 -48 30 C-50.88868721 23.94799686 -51.14229975 17.11091107 -49.34765625 10.65234375 C-46.4582786 4.21634805 -41.5050152 -0.19032333 -35 -2.8125 C-23.99525849 -6.34824395 -10.05366129 -6.2723377 0 0 Z " fill="#121213" transform="translate(543,418)"/>
<path d="M0 0 C8.46409574 7.14678567 13.80950847 16.78954152 15.18359375 27.84375 C15.18359375 29.49375 15.18359375 31.14375 15.18359375 32.84375 C-11.87640625 32.84375 -38.93640625 32.84375 -66.81640625 32.84375 C-66.81640625 20.10070397 -62.66264734 10.4993989 -54.23046875 1.0703125 C-39.18871174 -13.38444911 -15.7598256 -11.9018203 0 0 Z " fill="#FEFCF4" transform="translate(354.81640625,359.15625)"/>
<path d="M0 0 C7.85592981 4.99770854 12.79338116 10.69987366 15.5859375 19.54296875 C15.98500398 23.73316682 15.8359375 27.95881042 15.8359375 32.16796875 C-4.9540625 32.66296875 -4.9540625 32.66296875 -26.1640625 33.16796875 C-23.97383274 40.73223169 -23.97383274 40.73223169 -20.6015625 43.66796875 C-15.99293152 45.67900772 -12.11840141 45.98028731 -7.1640625 45.16796875 C-3.30861452 43.17139748 -1.56601158 41.77089237 0.8359375 38.16796875 C5.55659717 39.71066799 10.25257842 41.24591494 14.8359375 43.16796875 C13.22120123 49.08866839 8.85659612 53.26289428 3.7734375 56.46875 C-4.01354564 60.52447038 -12.45003519 61.45498169 -21.04296875 59.51953125 C-29.83150633 56.65928397 -35.82894632 52.2457291 -40.1015625 43.98046875 C-44.21012507 35.13661373 -44.62931788 25.51075676 -41.4765625 16.23046875 C-37.85315528 7.57942729 -32.30077723 3.40181862 -24.1640625 -0.83203125 C-17.24566865 -3.13816253 -6.72598527 -3.12802372 0 0 Z " fill="#121212" transform="translate(656.1640625,538.83203125)"/>
<path d="M0 0 C5.28 0 10.56 0 16 0 C16.33 14.19 16.66 28.38 17 43 C24.62288976 34.1227792 24.62288976 34.1227792 31.5 24.6875 C33.57066563 22.2834221 35.04313393 21.16089652 38.1953125 20.63085938 C43.82634482 20.23424642 49.3815822 20.54123806 55 21 C51.36602261 26.10846662 47.52047448 30.5988573 43.03515625 34.98046875 C40.95959136 37.0400984 38.96195316 39.14444267 37 41.3125 C36.4225 41.94800781 35.845 42.58351563 35.25 43.23828125 C33.71066529 45.04775977 33.71066529 45.04775977 34 48 C35.36031805 50.40959694 35.36031805 50.40959694 37.25 53.0625 C37.96800781 54.114375 38.68601562 55.16625 39.42578125 56.25 C39.83006348 56.8378125 40.2343457 57.425625 40.65087891 58.03125 C43.27274426 61.85729455 45.85456294 65.71012125 48.4375 69.5625 C48.96956055 70.34826416 49.50162109 71.13402832 50.04980469 71.94360352 C50.79665527 73.05626587 50.79665527 73.05626587 51.55859375 74.19140625 C52.00517334 74.85342041 52.45175293 75.51543457 52.91186523 76.19750977 C54 78 54 78 55 81 C42.164707 83.03502573 42.164707 83.03502573 36 81 C30.70146806 76.64328044 27.9208333 70.06191163 25 64 C23.14787801 60.31325764 23.14787801 60.31325764 20 58 C19.690625 58.639375 19.38125 59.27875 19.0625 59.9375 C18 62 18 62 17 63 C16.84417697 64.34015221 16.74955858 65.68758903 16.68359375 67.03515625 C16.64169922 67.84404297 16.59980469 68.65292969 16.55664062 69.48632812 C16.51732422 70.33646484 16.47800781 71.18660156 16.4375 72.0625 C16.39431641 72.91650391 16.35113281 73.77050781 16.30664062 74.65039062 C16.20023298 76.76672037 16.09958269 78.88333813 16 81 C10.72 81 5.44 81 0 81 C0 54.27 0 27.54 0 0 Z " fill="#131313" transform="translate(679,517)"/>
<path d="M0 0 C4.29183761 3.92368901 7.69766327 8.2007712 8.17398071 14.1862793 C8.23138642 16.90372488 8.22458253 19.6141303 8.1953125 22.33203125 C8.1924826 23.32377853 8.18965271 24.31552582 8.18673706 25.33732605 C8.17556804 28.49584159 8.15046927 31.65407057 8.125 34.8125 C8.11496597 36.95767819 8.10584086 39.10286083 8.09765625 41.24804688 C8.07563939 46.49880784 8.0411319 51.74935538 8 57 C3.05 57 -1.9 57 -7 57 C-7.495 55.02 -7.495 55.02 -8 53 C-8.7734375 53.928125 -8.7734375 53.928125 -9.5625 54.875 C-13.42183846 58.23955148 -17.36660347 58.84875958 -22.375 59.3125 C-29.34403459 58.71172116 -34.22847371 57.31907848 -39 52 C-43.74356289 46.20231202 -43.68241179 40.25663239 -43 33 C-40.48684177 27.5870438 -36.76260765 24.39121627 -31.140625 22.3125 C-23.92548522 20.35952983 -16.40663186 20.82434865 -9 21 C-8.48057397 15.71156882 -8.48057397 15.71156882 -10.375 11.0625 C-14.017461 8.68089089 -16.64587492 8.55720762 -21 9 C-23.83411155 11.333492 -23.83411155 11.333492 -26 14 C-29.00833096 15.50416548 -31.34961578 14.60839737 -34.625 14.0625 C-35.81351563 13.86785156 -37.00203125 13.67320312 -38.2265625 13.47265625 C-39.14179687 13.31667969 -40.05703125 13.16070313 -41 13 C-40.29354679 7.77078964 -39.1194337 4.41845781 -35 1 C-25.68215179 -5.02591381 -9.55511524 -5.58884099 0 0 Z " fill="#131314" transform="translate(778,540)"/>
<path d="M0 0 C5.49197618 6.23282927 5.54782992 12.24337839 5.46484375 20.125 C5.46201385 21.13894333 5.45918396 22.15288666 5.45626831 23.19755554 C5.4450975 26.42739802 5.41999836 29.65696046 5.39453125 32.88671875 C5.38449745 35.08007411 5.3753723 37.27343383 5.3671875 39.46679688 C5.34516826 44.83604495 5.3106595 50.20508441 5.26953125 55.57421875 C0.31953125 55.57421875 -4.63046875 55.57421875 -9.73046875 55.57421875 C-10.06046875 53.92421875 -10.39046875 52.27421875 -10.73046875 50.57421875 C-11.28734375 51.19296875 -11.84421875 51.81171875 -12.41796875 52.44921875 C-16.94350295 56.60781774 -21.21500584 56.97078319 -27.171875 56.8203125 C-33.60214039 56.20182896 -38.2260091 53.90731238 -42.54296875 49.09765625 C-46.4022843 44.14656064 -46.35178805 38.62237384 -45.73046875 32.57421875 C-44.06031889 27.82747705 -41.94703948 25.29156433 -37.73046875 22.57421875 C-31.35220735 19.67179126 -26.18611453 19.18957472 -19.23046875 19.38671875 C-18.31265625 19.40025391 -17.39484375 19.41378906 -16.44921875 19.42773438 C-14.20900072 19.46273778 -11.97006281 19.51183006 -9.73046875 19.57421875 C-9.9870912 18.13411394 -10.26137696 16.69715005 -10.54296875 15.26171875 C-10.69378906 14.46121094 -10.84460938 13.66070312 -11 12.8359375 C-11.81869239 10.30105572 -12.65145181 9.20927727 -14.73046875 7.57421875 C-17.09715745 7.02520355 -17.09715745 7.02520355 -19.66796875 7.07421875 C-20.52261719 7.04328125 -21.37726562 7.01234375 -22.2578125 6.98046875 C-24.99676223 7.35186911 -24.99676223 7.35186911 -26.5625 10.1484375 C-27.27792969 10.94894531 -27.99335937 11.74945313 -28.73046875 12.57421875 C-31.61440377 12.61410296 -33.71543101 12.44338514 -36.48046875 11.88671875 C-37.17785156 11.76876953 -37.87523437 11.65082031 -38.59375 11.52929688 C-40.3103505 11.23535843 -42.02116856 10.90800001 -43.73046875 10.57421875 C-42.17453712 5.52624147 -40.51275794 2.35650794 -36.73046875 -1.42578125 C-25.95404924 -7.10789335 -9.93586097 -8.18643173 0 0 Z " fill="#121313" transform="translate(832.73046875,440.42578125)"/>
<path d="M0 0 C21.78 0 43.56 0 66 0 C66 4.62 66 9.24 66 14 C57.75 14 49.5 14 41 14 C41 36.11 41 58.22 41 81 C35.72 81 30.44 81 25 81 C25 58.89 25 36.78 25 14 C16.75 14 8.5 14 0 14 C0 9.38 0 4.76 0 0 Z " fill="#111212" transform="translate(553,517)"/>
<path d="M0 0 C4.95 0 9.9 0 15 0 C15.66 4.29 16.32 8.58 17 13 C18.98 12.34 20.96 11.68 23 11 C27.04111163 10.37154503 30.21085529 10.571117 33.875 12.5625 C38.41471726 17.76982274 38.28288072 24.2181421 38.1953125 30.77734375 C38.1924826 31.58869278 38.18965271 32.40004181 38.18673706 33.23597717 C38.17562663 35.80330753 38.15053971 38.37027678 38.125 40.9375 C38.11495836 42.68814597 38.10583459 44.43879746 38.09765625 46.18945312 C38.07571734 50.45977254 38.0412516 54.72982525 38 59 C42.29 59 46.58 59 51 59 C50.97905273 57.81970215 50.95810547 56.6394043 50.93652344 55.42333984 C50.86392231 51.02893283 50.81812729 46.63457846 50.78027344 42.23974609 C50.76020371 40.34056675 50.73294149 38.44144885 50.69824219 36.54248047 C50.64951891 33.80681161 50.62698493 31.07196229 50.609375 28.3359375 C50.58872986 27.49195404 50.56808472 26.64797058 50.54681396 25.77841187 C50.54476719 20.3561755 51.40133852 17.31115944 55 13 C58.4094043 10.41355536 61.8386449 10.63496885 66 11 C69.83123193 12.70276975 71.43599344 14.16028855 73 18 C73.24050903 20.03753662 73.24050903 20.03753662 73.22705078 22.21777344 C73.22689972 23.03832214 73.22674866 23.85887085 73.22659302 24.70428467 C73.21627045 25.58046448 73.20594788 26.45664429 73.1953125 27.359375 C73.1924826 28.26375305 73.18965271 29.1681311 73.18673706 30.09991455 C73.17555782 32.98341195 73.15045733 35.86659675 73.125 38.75 C73.11496728 40.70702676 73.10584194 42.66405839 73.09765625 44.62109375 C73.07562585 49.41418262 73.04111144 54.20703834 73 59 C77.29 59 81.58 59 86 59 C85.95580597 52.41585128 85.88592684 45.8326577 85.79248047 39.24902344 C85.76429638 37.01049409 85.74306914 34.7718657 85.72900391 32.53320312 C85.70753952 29.31068306 85.6608694 26.08935062 85.609375 22.8671875 C85.60814636 21.87008759 85.60691772 20.87298767 85.60565186 19.84567261 C85.44750437 12.30248996 83.51024799 8.62435017 78.25 3.125 C77.5075 2.42375 76.765 1.7225 76 1 C80.89326308 2.39807517 83.0857479 4.90429435 86 9 C88.41528664 14.44194595 88.25851192 19.59283542 88.1953125 25.4296875 C88.1924826 26.42001984 88.18965271 27.41035217 88.18673706 28.43069458 C88.1755847 31.57892176 88.15048907 34.72685949 88.125 37.875 C88.11496382 40.01562088 88.10583908 42.15624624 88.09765625 44.296875 C88.07566153 49.53136072 88.04116563 54.76563136 88 60 C82.72 60 77.44 60 72 60 C71.970271 58.221698 71.970271 58.221698 71.93994141 56.4074707 C71.86374211 51.99970633 71.77504677 47.5922659 71.68261719 43.18481445 C71.64438661 41.27895514 71.60952345 39.37302513 71.578125 37.46704102 C71.53234578 34.72386447 71.4743727 31.98117212 71.4140625 29.23828125 C71.40251129 28.38913651 71.39096008 27.53999176 71.37905884 26.66511536 C71.27268631 22.37988742 71.07628792 18.86287217 69 15 C66.37934695 12.86465307 64.91938415 13.00287914 61.5 13.125 C57.69027219 14.07743195 56.35371756 14.92206165 54 18 C52.69079497 21.9276151 52.76537132 25.72570631 52.68359375 29.82421875 C52.66281265 30.68561966 52.64203156 31.54702057 52.62062073 32.43452454 C52.55525091 35.18543544 52.49629868 37.93644156 52.4375 40.6875 C52.39430283 42.55274421 52.35068815 44.4179788 52.30664062 46.28320312 C52.19958237 50.85537124 52.09827946 55.4276351 52 60 C46.72 60 41.44 60 36 60 C35.98541748 58.78417236 35.97083496 57.56834473 35.95581055 56.31567383 C35.89774902 51.79600922 35.8205164 47.27683873 35.73754883 42.75756836 C35.70433646 40.80322298 35.67629305 38.84878253 35.65356445 36.89428711 C35.61995067 34.08145718 35.56763146 31.26949553 35.51171875 28.45703125 C35.50532883 27.58601273 35.4989389 26.7149942 35.49235535 25.81758118 C35.37826064 21.08832506 35.09271901 17.82738789 32 14 C29.6040374 12.8020187 28.282953 12.89030703 25.625 13.0625 C24.46871094 13.11083984 24.46871094 13.11083984 23.2890625 13.16015625 C20.50011888 14.18340348 19.41866988 15.64326723 17.85006714 18.116745 C16.22487241 21.71723248 16.39629033 25.44427674 16.390625 29.3359375 C16.37408875 30.21528961 16.35755249 31.09464172 16.34051514 32.00064087 C16.29217086 34.79216592 16.27069465 37.58314676 16.25 40.375 C16.22182892 42.27476676 16.1918999 44.17450832 16.16015625 46.07421875 C16.08641566 50.716101 16.03675827 55.35768355 16 60 C10.72 60 5.44 60 0 60 C0 40.2 0 20.4 0 0 Z " fill="#0F0F10" transform="translate(625,436)"/>
<path d="M0 0 C4.69811979 2.2108799 7.23594189 4.93472627 9.3046875 9.59375 C11.10869552 15.83683394 11.02719483 22.52698979 8.375 28.5 C6.21990601 32.12963199 3.86303533 34.18210102 0 36 C-3.82855982 36.47017401 -6.15819421 36.3719607 -9.6875 34.8125 C-14.22143272 31.25887706 -16.6790304 27.6141208 -18 22 C-18.47314656 16.13298266 -17.99465441 11.17158031 -15 6 C-10.44074764 1.08816546 -6.68192898 -0.55682742 0 0 Z " fill="#FCFBF4" transform="translate(592,448)"/>
<path d="M0 0 C4.31993637 2.39996465 6.01716976 5.23333811 7.49609375 9.796875 C9.07154413 16.6848906 8.35510106 23.72960513 5 30 C1.30148841 33.28756586 -2.02078211 35 -7 35 C-11.5879153 33.72854285 -15.02864735 31.6989484 -17.5 27.5625 C-20.29338755 20.94527526 -20.05252666 13.15757999 -17.8125 6.4375 C-12.93074054 -0.12762479 -7.91386475 -1.95136391 0 0 Z " fill="#FCFBF5" transform="translate(758,449)"/>
<path d="M0 0 C4.57202115 3.58347604 6.15879459 6.04397297 7.3125 11.8125 C-1.2675 11.8125 -9.8475 11.8125 -18.6875 11.8125 C-17.68124473 5.77496837 -16.77803076 3.05047055 -11.875 -0.5 C-7.66447873 -1.82330668 -4.03934426 -1.78482653 0 0 Z " fill="#F8F7F2" transform="translate(648.6875,550.1875)"/>
<path d="M0 0 C0.6271777 7.99651568 0.6271777 7.99651568 -1.875 12 C-5.38124191 15.29999239 -8.05953095 15.40047784 -12.73046875 15.34765625 C-15 15 -15 15 -18.125 12.8125 C-20 10 -20 10 -20.0625 7.4375 C-18.7581664 4.44520527 -17.56417903 3.03873251 -15 1 C-11.58203125 0.390625 -11.58203125 0.390625 -7.8125 0.25 C-5.93498047 0.16492188 -5.93498047 0.16492188 -4.01953125 0.078125 C-1 0 -1 0 0 0 Z " fill="#FCFBF6" transform="translate(770,571)"/>
<path d="M0 0 C1.28132812 0.00902344 2.56265625 0.01804687 3.8828125 0.02734375 C4.87023437 0.03894531 5.85765625 0.05054688 6.875 0.0625 C6.76350438 4.71490805 6.46342507 8.13240876 3.9375 12.125 C-0.30516688 14.80913619 -4.21867511 15.01983168 -9.125 14.0625 C-11.40234375 12.71484375 -11.40234375 12.71484375 -13.125 11.0625 C-13.625 8.125 -13.625 8.125 -13.125 5.0625 C-9.07933118 0.07284179 -6.24795437 -0.05679959 0 0 Z " fill="#FBFBF6" transform="translate(816.125,469.9375)"/>
<path d="M0 0 C5.28 0 10.56 0 16 0 C16 9.9 16 19.8 16 30 C15.34 30.33 14.68 30.66 14 31 C14 21.43 14 11.86 14 2 C9.71 2 5.42 2 1 2 C1 28.07 1 54.14 1 81 C4.96 81 8.92 81 13 81 C13 78.36 13 75.72 13 73 C13.99 72.505 13.99 72.505 15 72 C15 75.3 15 78.6 15 82 C10.05 82 5.1 82 0 82 C0 54.94 0 27.88 0 0 Z " fill="#010101" transform="translate(723,414)"/>
<path d="M0 0 C4.95 0 9.9 0 15 0 C15 2.64 15 5.28 15 8 C14.34 8 13.68 8 13 8 C13 6.02 13 4.04 13 2 C9.04 2 5.08 2 1 2 C1 20.81 1 39.62 1 59 C4.96 59 8.92 59 13 59 C13 59.33 13 59.66 13 60 C8.71 60 4.42 60 0 60 C0 40.2 0 20.4 0 0 Z " fill="#010101" transform="translate(625,436)"/>
<path d="M0 0 C0 3 0 3 -1.93359375 5.12109375 C-3.60016321 6.6628655 -5.26682957 8.20453251 -6.93359375 9.74609375 C-8.96296931 11.95960925 -9.63361677 13.07559571 -10 16 C-10.66 16 -11.32 16 -12 16 C-12.061875 16.556875 -12.12375 17.11375 -12.1875 17.6875 C-13.36526823 21.03960959 -15.33435396 22.69785114 -18 25 C-19.64363134 25.72159424 -21.31050386 26.39351421 -23 27 C-24.36365283 27.95824253 -25.70794169 28.94721175 -27 30 C-25.34265633 25.65079242 -22.08850157 22.90860846 -18.8125 19.75 C-14.50069737 15.52339216 -10.34573727 11.26106731 -6.43359375 6.65625 C-4.40393442 4.31135747 -2.22564049 2.15819683 0 0 Z " fill="#D22813" transform="translate(346,518)"/>
<path d="M0 0 C0.66 0 1.32 0 2 0 C2.29296875 6.0546875 2.29296875 6.0546875 2 8 C-1.35119519 10.23413013 -2.4177755 10.23847762 -6.32421875 10.1953125 C-7.86625977 10.18564453 -7.86625977 10.18564453 -9.43945312 10.17578125 C-10.51130859 10.15902344 -11.58316406 10.14226563 -12.6875 10.125 C-13.77095703 10.11597656 -14.85441406 10.10695313 -15.97070312 10.09765625 C-18.6473571 10.0740734 -21.32356797 10.04116126 -24 10 C-20.80065633 6.80065633 -17.65666618 7.01701208 -13.23046875 6.90234375 C-11.88277758 6.90891785 -10.53510293 6.92073556 -9.1875 6.9375 C-8.49462891 6.94201172 -7.80175781 6.94652344 -7.08789062 6.95117188 C-5.39188932 6.96286844 -3.69593297 6.98080076 -2 7 C-1.34 4.69 -0.68 2.38 0 0 Z " fill="#222120" transform="translate(771,554)"/>
<path d="M0 0 C4.03616604 1.34538868 4.8288453 3.34180255 7.125 6.875 C7.82882812 7.94492187 8.53265625 9.01484375 9.2578125 10.1171875 C11 13 11 13 12 16 C5.73 16 -0.54 16 -7 16 C-7 15.34 -7 14.68 -7 14 C-2.05 13.67 2.9 13.34 8 13 C5.3697016 9.09412795 5.3697016 9.09412795 2.734375 5.19165039 C0 1.11111111 0 1.11111111 0 0 Z " fill="#262523" transform="translate(722,582)"/>
<path d="M0 0 C0 0.33 0 0.66 0 1 C-1.7015625 1.12955078 -1.7015625 1.12955078 -3.4375 1.26171875 C-16.68470487 2.42889904 -16.68470487 2.42889904 -27 10.3125 C-27.495 11.1478125 -27.495 11.1478125 -28 12 C-27.72524783 8.70297393 -27.27233527 7.28058785 -24.9375 4.875 C-16.66145998 -0.40757873 -9.63899471 -0.36552368 0 0 Z " fill="#010101" transform="translate(767,537)"/>
<path d="M0 0 C0.33 0 0.66 0 1 0 C1.12036664 5.77759884 0.8320582 11.27959989 0 17 C-0.66 17 -1.32 17 -2 17 C-2.05418326 14.91695462 -2.09287551 12.83350232 -2.125 10.75 C-2.14820313 9.58984375 -2.17140625 8.4296875 -2.1953125 7.234375 C-2.0103949 4.17213954 -1.60823023 2.55797249 0 0 Z " fill="#E4361E" transform="translate(200,460)"/>
<path d="M0 0 C0.66 0 1.32 0 2 0 C2 0.66 2 1.32 2 2 C1.34 2 0.68 2 0 2 C-0.66 4.31 -1.32 6.62 -2 9 C0.64 9.33 3.28 9.66 6 10 C6 10.33 6 10.66 6 11 C2.37 10.67 -1.26 10.34 -5 10 C-3.85569823 6.12697862 -2.76679902 2.99736561 0 0 Z " fill="#0E0E0C" transform="translate(794,441)"/>
<path d="M0 0 C2.59335905 2.59335905 2.27726563 4.48747032 2.36328125 8.02734375 C1.90495491 10.51610505 0.90294128 11.39831592 -1 13 C-1.02696365 11.20841511 -1.04637917 9.41671527 -1.0625 7.625 C-1.07410156 6.62726563 -1.08570313 5.62953125 -1.09765625 4.6015625 C-1 2 -1 2 0 0 Z " fill="#262524" transform="translate(617,460)"/>
<path d="M0 0 C0.33 0.66 0.66 1.32 1 2 C-0.07507629 3.29854721 -1.16043736 4.58858361 -2.25 5.875 C-2.85328125 6.59429687 -3.4565625 7.31359375 -4.078125 8.0546875 C-6.0069492 10.00703394 -7.41557814 11.10062119 -10 12 C-10.99 11.67 -11.98 11.34 -13 11 C-12.21625 10.54625 -11.4325 10.0925 -10.625 9.625 C-7.96301969 8.11571258 -7.96301969 8.11571258 -6 6 C-4 4 -2 2 0 0 Z " fill="#060606" transform="translate(550,482)"/>
<path d="M0 0 C2.05078125 0.03255208 4.1015625 0.06510417 6.15234375 0.09765625 C6.15234375 1.08765625 6.15234375 2.07765625 6.15234375 3.09765625 C2.77734375 3.22265625 2.77734375 3.22265625 -0.84765625 3.09765625 C-1.50765625 2.43765625 -2.16765625 1.77765625 -2.84765625 1.09765625 C-1.84765625 0.09765625 -1.84765625 0.09765625 0 0 Z " fill="#1E1E1D" transform="translate(752.84765625,595.90234375)"/>
<path d="M0 0 C0.66 0.33 1.32 0.66 2 1 C-1.44615385 6.78461538 -1.44615385 6.78461538 -4.25 7.875 C-4.8275 7.91625 -5.405 7.9575 -6 8 C-4.26440562 4.942048 -2.61527381 2.36620011 0 0 Z " fill="#090909" transform="translate(568,442)"/>
<path d="M0 0 C0 0.99 0 1.98 0 3 C-0.5775 3.061875 -1.155 3.12375 -1.75 3.1875 C-4.88690987 4.32027301 -6.09167504 6.34197595 -8 9 C-7.70100785 5.41209425 -7.23013399 4.21833224 -4.5625 1.6875 C-2 0 -2 0 0 0 Z " fill="#0C0C0C" transform="translate(649,437)"/>
<path d="M0 0 C0 0.33 0 0.66 0 1 C-0.92232422 1.07347656 -0.92232422 1.07347656 -1.86328125 1.1484375 C-2.67152344 1.22320312 -3.47976562 1.29796875 -4.3125 1.375 C-5.51326172 1.47941406 -5.51326172 1.47941406 -6.73828125 1.5859375 C-9.27224441 1.89564426 -9.27224441 1.89564426 -12 4 C-12.99 3.67 -13.98 3.34 -15 3 C-10.27805833 -0.77755334 -5.74071928 -0.30096975 0 0 Z " fill="#F64726" transform="translate(225,394)"/>
<path d="M0 0 C0 3 0 3 -1.875 5.0625 C-2.57625 5.701875 -3.2775 6.34125 -4 7 C-4.66 7.66 -5.32 8.32 -6 9 C-5.69381595 5.32579134 -5.24228216 4.21864487 -2.4375 1.6875 C-1.633125 1.130625 -0.82875 0.57375 0 0 Z " fill="#070706" transform="translate(745,540)"/>
<path d="M0 0 C0.66 0 1.32 0 2 0 C1.60196439 2.88575819 1.20990931 3.82189513 -1.0625 5.75 C-1.701875 6.1625 -2.34125 6.575 -3 7 C-2.38722388 4.03824877 -1.74627478 2.61941217 0 0 Z " fill="#DE2D16" transform="translate(323,488)"/>
<path d="M0 0 C0.33 0 0.66 0 1 0 C1 2.97 1 5.94 1 9 C0.67 8.34 0.34 7.68 0 7 C-0.66 7 -1.32 7 -2 7 C-2.125 4.625 -2.125 4.625 -2 2 C-1.34 1.34 -0.68 0.68 0 0 Z " fill="#E94F36" transform="translate(267,383)"/>
</svg>
